<?xml version="1.0" encoding="utf-8"?>
<!-- Generator: Adobe Illustrator 22.1.0, SVG Export Plug-In . SVG Version: 6.00 Build 0)  -->
<svg version="1.1" id="Layer_1" xmlns="http://www.w3.org/2000/svg" xmlns:xlink="http://www.w3.org/1999/xlink" x="0px" y="0px"
	 viewBox="0 0 1920 1080" style="enable-background:new 0 0 1920 1080;" xml:space="preserve">
<style type="text/css">
	.st0{display:none;}
	.st1{display:none;fill:#1A1A1A;}
	.st2{fill:#FFFFFF;}
	.st3{display:none;fill:#E6E7E8;stroke:#231F20;stroke-linecap:round;stroke-miterlimit:10;}
	.st4{fill:url(#SVGID_1_);}
	.st5{fill:#E6E6E6;}
	.st6{fill:#666666;}
	.st7{opacity:0.14;}
	.st8{opacity:0.17;fill:#1A1A1A;}
	.st9{fill:url(#SVGID_2_);}
	.st10{fill:url(#SVGID_3_);}
</style>
<g>
	<path class="st0" d="M371.1,88v-5.6V68.1c0-1.1,0.4-2.2,1-3c1.7-2.2,5.5-6.7,9.5-8.9c5.5-3.1,7.8-3.1,7.8-3.1s1.8,10.8,0,12.8
		s-6.4,2.1-7.3,3.6s-3.2,8.7-3.2,8.7s-0.5-9.2,0.5-10.3c0.9-1,5-2.1,5.5-3.1c0.5-1,0-4.6,0-4.6s-7.3,3.6-9.1,7.2s-1.8,15.4-1.8,15.4
		L371.1,88z"/>
	<path class="st0" d="M367.3,88v-5.6V68.1c0-1.1-0.4-2.2-1-3c-1.7-2.2-5.5-6.7-9.5-8.9c-5.5-3.1-7.8-3.1-7.8-3.1s-1.8,10.8,0,12.8
		s6.4,2.1,7.3,3.6c0.9,1.5,3.2,8.7,3.2,8.7S360,69,359.1,68c-0.9-1-5-2.1-5.5-3.1c-0.5-1,0-4.6,0-4.6s7.3,3.6,9.1,7.2
		s1.8,15.4,1.8,15.4L367.3,88z"/>
</g>
<rect class="st1" width="1920" height="1080"/>
<polygon class="st2" points="0,1080 0,960 1920,198 1920,1080 "/>
<circle class="st3" cx="1620.5" cy="320.5" r="207"/>
<radialGradient id="SVGID_1_" cx="1626.5" cy="386.5171" r="174.5038" gradientUnits="userSpaceOnUse">
	<stop  offset="0" style="stop-color:#F15A24"/>
	<stop  offset="0.2636" style="stop-color:#F15E24"/>
	<stop  offset="0.53" style="stop-color:#F36A22"/>
	<stop  offset="0.7968" style="stop-color:#F57E20"/>
	<stop  offset="1" style="stop-color:#F7931E"/>
</radialGradient>
<path class="st4" d="M1427.1,394.4l384.7-153.3c0,0,72.6,185.9-110.8,270.2S1427.1,394.4,1427.1,394.4z"/>
<path class="st5" d="M1428.1,393.7L1813,241.1c0,0-74.8-185.1-266-120.4S1428.1,393.7,1428.1,393.7z"/>
<path class="st6" d="M1405,457"/>
<path class="st7" d="M1419.2,258.9c52.8,0,52.8,31.9,52.8,0s37.9-57.9,57.9-57.9s52.1-41.1,52.1,0s34.5,34.5,52,52s47-23,47,0
	s-36.5,25-36.5,36.5s-27.7,5.7-33.5,0s15-15.5,0-15.5s-41-20-41,0s-6.5,23.5,0,30s22-6,22,0s6,25.4,0,25.4s-24.2-5.8-30,0
	s-40-14.6-40,0s-26.8,23-26.8,26.8s-27.2,0-27.2,0s-41-24.8-41,0s-8.1-8.1-8.1-8.1S1415,322,1415,305s3.9-37,3.9-37L1419.2,258.9z"
	/>
<path class="st8" d="M1603.2,201.3c11.6-11.6-4.7-35.1,35.1-35.1c39.7,0-8.5,8.5,14-14s35.4-7.4,42.7,0c7.4,7.4,29,16.7,36,21.7
	s20.5,8,20.5,20.5S1729,201,1729,217s-17,0-33,0s-55-3-58,0s-18.5-4.5-23,0s-11.7-11.7-11.7-11.7L1603.2,201.3z"/>
<radialGradient id="SVGID_2_" cx="1623.777" cy="178.0245" r="374.7584" gradientTransform="matrix(1.0053 0.2694 -0.4445 1.0633 36.9149 -416.9566)" gradientUnits="userSpaceOnUse">
	<stop  offset="2.564103e-03" style="stop-color:#F7F6F6;stop-opacity:0.25"/>
	<stop  offset="8.999982e-02" style="stop-color:#CFCECE;stop-opacity:0.2325"/>
	<stop  offset="0.2089" style="stop-color:#9F9F9F;stop-opacity:0.2086"/>
	<stop  offset="0.3317" style="stop-color:#767676;stop-opacity:0.184"/>
	<stop  offset="0.4563" style="stop-color:#555555;stop-opacity:0.159"/>
	<stop  offset="0.5833" style="stop-color:#3B3B3B;stop-opacity:0.1336"/>
	<stop  offset="0.7137" style="stop-color:#292929;stop-opacity:0.1074"/>
	<stop  offset="0.8496" style="stop-color:#1E1E1E;stop-opacity:8.015516e-02"/>
	<stop  offset="1" style="stop-color:#1A1A1A;stop-opacity:5.000000e-02"/>
</radialGradient>
<path class="st9" d="M1085,540l1008-409c0,0-359.3-315.7-724-168S1085,540,1085,540z"/>
<radialGradient id="SVGID_3_" cx="1572.2257" cy="454.601" r="417.5379" gradientUnits="userSpaceOnUse">
	<stop  offset="0" style="stop-color:#F7931E;stop-opacity:0.45"/>
	<stop  offset="4.583132e-02" style="stop-color:#F79C31;stop-opacity:0.4317"/>
	<stop  offset="0.1781" style="stop-color:#F5B264;stop-opacity:0.3788"/>
	<stop  offset="0.3131" style="stop-color:#F4C690;stop-opacity:0.3248"/>
	<stop  offset="0.4484" style="stop-color:#F3D6B3;stop-opacity:0.2706"/>
	<stop  offset="0.5843" style="stop-color:#F3E2CF;stop-opacity:0.2163"/>
	<stop  offset="0.7209" style="stop-color:#F2EBE2;stop-opacity:0.1616"/>
	<stop  offset="0.8588" style="stop-color:#F2F0EE;stop-opacity:0.1065"/>
	<stop  offset="1" style="stop-color:#F2F2F2;stop-opacity:5.000000e-02"/>
	<stop  offset="1" style="stop-color:#F2F2F2;stop-opacity:5.021604e-02"/>
	<stop  offset="1" style="stop-color:#F2F2F2;stop-opacity:5.152849e-02"/>
</radialGradient>
<path class="st10" d="M1077,532l987-399c0,0,53.9,462.1-264,608S1077,532,1077,532z"/>
</svg>
