<?xml version="1.0" encoding="utf-8"?>
<svg viewBox="110.972 147.533 185.542 47.916" xmlns="http://www.w3.org/2000/svg">
  <g transform="matrix(1.15753, 0, 0, 0.76414, -24.997185, 44.444557)" style="">
    <path style="stroke: rgb(0, 0, 0); fill: rgb(100, 142, 181); stroke-width: 0px; stroke-opacity: 0;" d="M 250.871 173.493 C 243.401 181.91 232.014 184.074 216.709 179.986 C 215.29 179.607 213.821 179.607 212.3 179.986 C 210.867 180.343 209.519 180.944 208.26 181.789 C 196.412 189.731 182.086 190.453 165.282 183.954 C 164.341 183.591 163.362 183.831 162.343 184.675 C 151.65 193.526 137.935 192.323 121.201 181.068 C 113.822 176.105 117.373 168.41 131.854 157.982 C 138.618 153.111 147.189 152.63 157.568 156.539 C 164.39 159.108 170.022 154.538 174.465 142.831 C 179.14 130.513 192.365 132.557 214.138 148.964 C 222.483 155.252 232.767 153.088 244.994 142.471 C 252.622 135.846 262.296 138.972 274.013 151.849 C 279.237 157.59 278.993 165.286 273.278 174.936 C 269.266 181.712 261.796 181.231 250.871 173.493 Z"/>
    <path style="stroke: rgb(0, 0, 0); stroke-width: 0px; fill: rgb(84, 127, 165);" d="M 276.605 166.639 C 270.834 171.088 262.657 170.967 252.076 166.278 C 250.303 165.493 248.62 166.455 247.026 169.164 C 242.025 177.665 232.165 177.905 217.447 169.886 C 213.189 167.566 205.854 171.293 195.443 181.068 C 186.205 189.741 173.7 187.697 157.928 174.936 C 155.876 173.275 154.553 175.56 153.96 181.789 C 152.873 193.201 141.45 192.239 119.691 178.904 C 118.212 177.998 119.174 179.441 122.577 183.232 C 132.426 194.207 146.975 196.612 166.224 190.447 C 171.727 188.685 177.378 189.887 183.178 194.054 C 192.415 200.69 203.478 198.045 216.365 186.118 C 218.184 184.435 220.589 185.036 223.579 187.922 C 230.807 194.899 240.667 192.975 253.158 182.15 C 254.969 180.581 257.253 181.302 260.012 184.314 C 265.639 190.458 271.17 184.566 276.605 166.639 Z"/>
  </g>
</svg>