<?xml version="1.0" encoding="utf-8"?>
<svg viewBox="48.543 228.804 299.452 85.787" xmlns="http://www.w3.org/2000/svg">
  <g transform="matrix(-1.08822, 0, 0, 1.08822, 442.90332, -46.172829)" style="">
    <path style="stroke: rgb(0, 0, 0); stroke-opacity: 0; stroke-width: 0px; fill: rgb(100, 142, 181);" d="M 338.524 296.27 C 343.671 300.927 350.412 300.559 358.745 295.167 C 361.336 293.491 361.948 291.163 360.583 288.182 C 359.644 286.132 357.989 284.6 355.62 283.586 C 352.481 282.242 349.11 281.691 345.509 281.932 C 345.509 281.932 344.222 279.481 341.649 274.579 C 339.317 270.136 334.354 269.401 326.759 272.373 C 325.436 272.891 325.62 271.482 327.311 268.145 C 328.824 265.159 327.476 262.095 323.266 258.953 C 309.468 248.656 296.784 251.046 285.215 266.123 C 284.804 266.658 284.13 266.658 283.193 266.123 C 279.122 263.801 274.956 265.945 270.693 272.556 C 270.124 273.437 269.083 273.56 267.568 272.924 C 264.539 271.653 261.353 272.449 258.009 275.314 C 257.45 275.793 256.715 275.793 255.803 275.314 C 252.088 273.364 247.922 273.854 243.303 276.784 C 242.909 277.034 242.48 276.85 242.016 276.233 C 240.911 274.764 239.073 274.764 236.501 276.233 C 236.01 276.513 235.581 276.145 235.214 275.13 C 233.096 269.276 226.907 268.602 216.648 273.108 C 216.062 273.365 216.097 271.27 216.097 271.27 C 208.045 260.225 198.234 259.731 186.664 269.79 C 186.114 270.268 185.438 270.539 184.635 270.602 C 175.854 271.295 170.781 274.406 169.416 279.936 C 169.313 280.351 168.907 280.216 168.198 279.53 C 166.644 278.027 164.885 279.109 162.922 282.777 C 162.541 283.489 161.797 283.489 160.69 282.777 C 155.826 279.648 150.144 280.73 143.645 286.024 C 143.11 286.459 142.434 286.324 141.616 285.618 C 138.211 282.68 133.882 283.898 128.629 289.271 C 124.833 293.154 130.109 294.439 144.457 293.126 C 145.36 293.043 146.172 293.449 146.892 294.344 C 150.681 299.053 156.701 299.594 164.952 295.967 C 165.539 295.709 166.148 295.912 166.778 296.576 C 172.903 303.031 181.764 303.842 193.361 299.011 C 193.936 298.771 194.545 298.906 195.187 299.417 C 205.958 307.985 219.689 307.038 236.38 296.576 C 236.797 296.315 237.271 296.45 237.8 296.982 C 245.922 305.145 257.421 304.536 272.297 295.155 C 272.681 294.913 273.087 295.116 273.514 295.764 C 276.605 300.451 282.22 300.384 290.357 295.561 C 290.858 295.264 291.331 295.603 291.777 296.576 C 298.229 310.658 313.812 310.556 338.524 296.27 Z"/>
    <path style="stroke: rgb(0, 0, 0); stroke-width: 0px; stroke-opacity: 0; fill: rgb(84, 127, 165);" d="M 359.044 288.458 C 348.871 298.692 337.972 296.694 326.345 282.464 C 325.796 281.793 325.433 282.58 325.255 284.825 C 324.731 291.438 318.555 293.861 306.726 292.092 C 293.471 290.11 284.63 286.537 280.203 281.374 C 279.939 281.066 279.757 281.429 279.658 282.464 C 279.008 289.231 272.529 291.29 260.22 288.64 C 259.718 288.532 259.355 288.895 259.13 289.73 C 258.012 293.883 253.773 294.609 246.414 291.91 C 242.929 290.632 240.87 287.544 240.237 282.645 C 240.185 282.242 239.822 282.424 239.147 283.19 C 234.544 288.416 227.581 288.477 218.256 283.372 C 217.661 283.046 217.548 283.715 217.916 285.378 C 218.899 289.821 215.171 292.43 206.733 293.207 C 199.413 293.881 193.635 292.452 189.398 288.92 C 189.078 288.653 188.705 288.84 188.28 289.479 C 184.729 294.816 178.33 294.443 169.082 288.36 C 168.687 288.1 168.252 288.287 167.777 288.92 C 164.645 293.099 159.426 292.912 152.12 288.36 C 151.669 288.079 151.172 288.266 150.629 288.92 C 148.669 291.279 145.687 291.466 141.682 289.479 C 141.091 289.186 140.594 289.62 140.191 290.783 C 139.03 294.134 135.489 294.321 129.566 291.343 C 128.467 290.79 129.337 291.66 132.176 293.952 C 135.241 296.426 139.155 295.991 143.919 292.647 C 144.442 292.28 145.001 292.59 145.596 293.579 C 149.025 299.279 155.611 300.211 165.354 296.375 C 165.899 296.16 166.396 296.471 166.845 297.307 C 171.084 305.206 180.031 305.765 193.685 298.985 C 194.266 298.696 194.888 298.883 195.549 299.544 C 205.119 309.114 218.601 307.933 235.996 296.002 C 236.778 295.465 237.586 295.963 238.419 297.494 C 243.658 307.121 254.594 306.376 271.225 295.257 C 271.847 294.841 272.406 295.338 272.902 296.748 C 274.865 302.327 280.767 301.955 290.609 295.63 C 291.102 295.313 291.599 295.624 292.1 296.562 C 299.414 310.265 314.947 310.203 338.698 296.375 C 339.279 296.037 339.652 296.596 339.817 298.053 C 340.58 304.776 347.166 305.646 359.574 300.662 C 363.498 299.086 363.321 295.018 359.044 288.458 Z"/>
  </g>
  <g style="" transform="matrix(1, 0, 0, 1, -14.394944, 7.52937)">
    <path style="stroke: rgb(0, 0, 0); stroke-opacity: 0; stroke-width: 0px; fill: rgb(100, 142, 181);" d="M 338.524 296.27 C 343.671 300.927 350.412 300.559 358.745 295.167 C 361.336 293.491 361.948 291.163 360.583 288.182 C 359.644 286.132 357.989 284.6 355.62 283.586 C 352.481 282.242 349.11 281.691 345.509 281.932 C 345.509 281.932 344.222 279.481 341.649 274.579 C 339.317 270.136 334.354 269.401 326.759 272.373 C 325.436 272.891 325.62 271.482 327.311 268.145 C 328.824 265.159 327.476 262.095 323.266 258.953 C 309.468 248.656 296.784 251.046 285.215 266.123 C 284.804 266.658 284.13 266.658 283.193 266.123 C 279.122 263.801 274.956 265.945 270.693 272.556 C 270.124 273.437 269.083 273.56 267.568 272.924 C 264.539 271.653 261.353 272.449 258.009 275.314 C 257.45 275.793 256.715 275.793 255.803 275.314 C 252.088 273.364 247.922 273.854 243.303 276.784 C 242.909 277.034 242.48 276.85 242.016 276.233 C 240.911 274.764 239.073 274.764 236.501 276.233 C 236.01 276.513 235.581 276.145 235.214 275.13 C 233.096 269.276 226.907 268.602 216.648 273.108 C 216.062 273.365 216.097 271.27 216.097 271.27 C 208.045 260.225 198.234 259.731 186.664 269.79 C 186.114 270.268 185.438 270.539 184.635 270.602 C 175.854 271.295 170.781 274.406 169.416 279.936 C 169.313 280.351 168.907 280.216 168.198 279.53 C 166.644 278.027 164.885 279.109 162.922 282.777 C 162.541 283.489 161.797 283.489 160.69 282.777 C 155.826 279.648 150.144 280.73 143.645 286.024 C 143.11 286.459 142.434 286.324 141.616 285.618 C 138.211 282.68 133.882 283.898 128.629 289.271 C 124.833 293.154 130.109 294.439 144.457 293.126 C 145.36 293.043 146.172 293.449 146.892 294.344 C 150.681 299.053 156.701 299.594 164.952 295.967 C 165.539 295.709 166.148 295.912 166.778 296.576 C 172.903 303.031 181.764 303.842 193.361 299.011 C 193.936 298.771 194.545 298.906 195.187 299.417 C 205.958 307.985 219.689 307.038 236.38 296.576 C 236.797 296.315 237.271 296.45 237.8 296.982 C 245.922 305.145 257.421 304.536 272.297 295.155 C 272.681 294.913 273.087 295.116 273.514 295.764 C 276.605 300.451 282.22 300.384 290.357 295.561 C 290.858 295.264 291.331 295.603 291.777 296.576 C 298.229 310.658 313.812 310.556 338.524 296.27 Z"/>
    <path style="stroke: rgb(0, 0, 0); stroke-width: 0px; stroke-opacity: 0; fill: rgb(84, 127, 165);" d="M 359.044 288.458 C 348.871 298.692 337.972 296.694 326.345 282.464 C 325.796 281.793 325.433 282.58 325.255 284.825 C 324.731 291.438 318.555 293.861 306.726 292.092 C 293.471 290.11 284.63 286.537 280.203 281.374 C 279.939 281.066 279.757 281.429 279.658 282.464 C 279.008 289.231 272.529 291.29 260.22 288.64 C 259.718 288.532 259.355 288.895 259.13 289.73 C 258.012 293.883 253.773 294.609 246.414 291.91 C 242.929 290.632 240.87 287.544 240.237 282.645 C 240.185 282.242 239.822 282.424 239.147 283.19 C 234.544 288.416 227.581 288.477 218.256 283.372 C 217.661 283.046 217.548 283.715 217.916 285.378 C 218.899 289.821 215.171 292.43 206.733 293.207 C 199.413 293.881 193.635 292.452 189.398 288.92 C 189.078 288.653 188.705 288.84 188.28 289.479 C 184.729 294.816 178.33 294.443 169.082 288.36 C 168.687 288.1 168.252 288.287 167.777 288.92 C 164.645 293.099 159.426 292.912 152.12 288.36 C 151.669 288.079 151.172 288.266 150.629 288.92 C 148.669 291.279 145.687 291.466 141.682 289.479 C 141.091 289.186 140.594 289.62 140.191 290.783 C 139.03 294.134 135.489 294.321 129.566 291.343 C 128.467 290.79 129.337 291.66 132.176 293.952 C 135.241 296.426 139.155 295.991 143.919 292.647 C 144.442 292.28 145.001 292.59 145.596 293.579 C 149.025 299.279 155.611 300.211 165.354 296.375 C 165.899 296.16 166.396 296.471 166.845 297.307 C 171.084 305.206 180.031 305.765 193.685 298.985 C 194.266 298.696 194.888 298.883 195.549 299.544 C 205.119 309.114 218.601 307.933 235.996 296.002 C 236.778 295.465 237.586 295.963 238.419 297.494 C 243.658 307.121 254.594 306.376 271.225 295.257 C 271.847 294.841 272.406 295.338 272.902 296.748 C 274.865 302.327 280.767 301.955 290.609 295.63 C 291.102 295.313 291.599 295.624 292.1 296.562 C 299.414 310.265 314.947 310.203 338.698 296.375 C 339.279 296.037 339.652 296.596 339.817 298.053 C 340.58 304.776 347.166 305.646 359.574 300.662 C 363.498 299.086 363.321 295.018 359.044 288.458 Z"/>
  </g>
  <path style="stroke: rgb(0, 0, 0); fill: rgb(100, 142, 181); stroke-opacity: 0; stroke-width: 0px;" d="M 107.244 294.814 C 106.404 290.374 101.724 288.094 93.204 287.974 C 89.508 287.922 85.908 287.082 82.404 285.454 C 79.067 283.904 76.187 285.824 73.764 291.214 C 72.198 294.697 74.958 297.337 82.044 299.134 C 86.362 300.229 91.282 300.229 96.804 299.134 C 101.32 298.239 104.8 296.799 107.244 294.814 Z"/>
  <path style="stroke: rgb(0, 0, 0); fill: rgb(84, 127, 165); stroke-width: 0px; stroke-opacity: 0;" d="M 73.784 291.589 C 72.348 295.718 77.614 298.531 89.582 300.027 C 95.611 300.78 101.416 298.985 106.997 294.641 C 107.712 294.085 106.814 294.205 104.304 295 Q 89.59 299.662 73.784 291.589 Z"/>
</svg>