<?xml version="1.0" encoding="utf-8"?>
<svg viewBox="42.552 147.497 126.866 54.609" xmlns="http://www.w3.org/2000/svg">
  <g transform="matrix(14.260976, 0, 0, 12.797918, 24.183443, 49.324062)" style="">
    <path d="M 2.758 9.961 C 2.771 9.988 2.781 10.008 2.788 10.021 C 2.795 10.034 2.798 10.048 2.798 10.061 C 2.805 10.074 2.811 10.088 2.818 10.101 C 2.818 10.114 2.818 10.124 2.818 10.131 C 2.818 10.144 2.815 10.158 2.808 10.171 C 2.801 10.184 2.791 10.201 2.778 10.221 C 2.678 10.254 2.578 10.291 2.478 10.331 C 2.371 10.371 2.265 10.408 2.158 10.441 C 2.131 10.448 2.108 10.458 2.088 10.471 C 2.061 10.478 2.035 10.484 2.008 10.491 C 2.001 10.498 1.991 10.501 1.978 10.501 C 1.965 10.508 1.951 10.514 1.938 10.521 C 1.925 10.521 1.911 10.524 1.898 10.531 C 1.878 10.538 1.868 10.541 1.868 10.541 C 1.848 10.541 1.825 10.541 1.798 10.541 C 1.771 10.541 1.748 10.541 1.728 10.541 C 1.715 10.548 1.705 10.554 1.698 10.561 C 1.691 10.574 1.685 10.588 1.678 10.601 C 1.671 10.608 1.661 10.618 1.648 10.631 C 1.635 10.638 1.618 10.641 1.598 10.641 C 1.571 10.641 1.548 10.641 1.528 10.641 C 1.501 10.634 1.475 10.628 1.448 10.621 C 1.441 10.614 1.441 10.604 1.448 10.591 C 1.448 10.578 1.445 10.568 1.438 10.561 C 1.418 10.561 1.401 10.564 1.388 10.571 C 1.375 10.578 1.361 10.581 1.348 10.581 C 1.341 10.568 1.335 10.554 1.328 10.541 C 1.321 10.528 1.315 10.514 1.308 10.501 C 1.301 10.494 1.298 10.484 1.298 10.471 C 1.298 10.458 1.298 10.444 1.298 10.431 C 1.298 10.411 1.301 10.388 1.308 10.361 C 1.308 10.341 1.311 10.324 1.318 10.311 C 1.325 10.158 1.328 10.008 1.328 9.861 C 1.328 9.708 1.328 9.558 1.328 9.411 C 1.328 9.398 1.328 9.378 1.328 9.351 C 1.328 9.331 1.328 9.308 1.328 9.281 C 1.328 9.254 1.328 9.231 1.328 9.211 C 1.321 9.184 1.318 9.168 1.318 9.161 C 1.318 9.141 1.318 9.121 1.318 9.101 C 1.318 9.088 1.318 9.071 1.318 9.051 C 1.318 9.038 1.318 9.024 1.318 9.011 C 1.318 8.998 1.318 8.984 1.318 8.971 C 1.318 8.958 1.318 8.944 1.318 8.931 C 1.318 8.918 1.318 8.904 1.318 8.891 C 1.311 8.878 1.308 8.864 1.308 8.851 C 1.308 8.831 1.308 8.811 1.308 8.791 C 1.315 8.771 1.318 8.751 1.318 8.731 C 1.318 8.664 1.315 8.598 1.308 8.531 C 1.301 8.464 1.298 8.398 1.298 8.331 C 1.298 8.238 1.295 8.148 1.288 8.061 C 1.288 7.974 1.288 7.884 1.288 7.791 C 1.295 7.764 1.298 7.744 1.298 7.731 C 1.338 7.711 1.368 7.704 1.388 7.711 C 1.408 7.718 1.428 7.721 1.448 7.721 C 1.461 7.721 1.475 7.718 1.488 7.711 C 1.495 7.711 1.505 7.708 1.518 7.701 C 1.531 7.701 1.541 7.704 1.548 7.711 C 1.561 7.718 1.575 7.721 1.588 7.721 C 1.621 7.708 1.641 7.704 1.648 7.711 C 1.655 7.718 1.661 7.724 1.668 7.731 C 1.675 7.724 1.681 7.718 1.688 7.711 C 1.695 7.704 1.705 7.701 1.718 7.701 C 1.731 7.701 1.741 7.711 1.748 7.731 C 1.755 7.751 1.765 7.768 1.778 7.781 C 1.778 7.814 1.785 7.841 1.798 7.861 C 1.798 7.968 1.798 8.074 1.798 8.181 C 1.798 8.281 1.801 8.384 1.808 8.491 C 1.815 8.538 1.818 8.588 1.818 8.641 C 1.825 8.688 1.828 8.734 1.828 8.781 C 1.828 8.861 1.828 8.941 1.828 9.021 C 1.828 9.101 1.828 9.181 1.828 9.261 C 1.828 9.274 1.828 9.284 1.828 9.291 C 1.835 9.304 1.838 9.318 1.838 9.331 C 1.838 9.364 1.835 9.394 1.828 9.421 C 1.828 9.448 1.828 9.474 1.828 9.501 L 1.828 9.811 C 1.828 9.838 1.828 9.864 1.828 9.891 C 1.821 9.918 1.821 9.944 1.828 9.971 L 1.838 10.021 C 1.871 10.008 1.901 9.994 1.928 9.981 C 1.961 9.974 1.995 9.968 2.028 9.961 C 2.048 9.954 2.068 9.948 2.088 9.941 C 2.101 9.934 2.118 9.931 2.138 9.931 C 2.178 9.911 2.208 9.894 2.228 9.881 C 2.248 9.874 2.268 9.868 2.288 9.861 C 2.335 9.848 2.378 9.831 2.418 9.811 C 2.458 9.798 2.501 9.781 2.548 9.761 C 2.568 9.768 2.585 9.764 2.598 9.751 C 2.625 9.758 2.648 9.761 2.668 9.761 C 2.695 9.794 2.711 9.818 2.718 9.831 C 2.725 9.844 2.735 9.858 2.748 9.871 C 2.748 9.884 2.751 9.894 2.758 9.901 C 2.758 9.901 2.761 9.908 2.768 9.921 C 2.775 9.921 2.775 9.928 2.768 9.941 C 2.761 9.948 2.758 9.954 2.758 9.961 ZM 6.1 7.701 C 6.133 7.701 6.153 7.704 6.16 7.711 C 6.173 7.738 6.183 7.761 6.19 7.781 C 6.196 7.801 6.2 7.821 6.2 7.841 C 6.2 7.881 6.2 7.911 6.2 7.931 C 6.2 7.944 6.196 7.961 6.19 7.981 C 6.19 8.021 6.19 8.061 6.19 8.101 C 6.19 8.141 6.19 8.181 6.19 8.221 C 6.19 8.314 6.19 8.408 6.19 8.501 C 6.196 8.594 6.2 8.684 6.2 8.771 C 6.2 8.811 6.196 8.848 6.19 8.881 C 6.19 8.914 6.19 8.951 6.19 8.991 C 6.19 8.998 6.19 9.004 6.19 9.011 C 6.196 9.024 6.2 9.034 6.2 9.041 C 6.2 9.068 6.196 9.091 6.19 9.111 C 6.19 9.131 6.19 9.151 6.19 9.171 C 6.19 9.184 6.19 9.194 6.19 9.201 C 6.19 9.208 6.193 9.218 6.2 9.231 C 6.193 9.251 6.19 9.264 6.19 9.271 C 6.19 9.318 6.19 9.361 6.19 9.401 C 6.196 9.448 6.2 9.491 6.2 9.531 C 6.2 9.571 6.2 9.608 6.2 9.641 C 6.2 9.681 6.2 9.718 6.2 9.751 C 6.2 9.778 6.2 9.801 6.2 9.821 C 6.2 9.848 6.2 9.871 6.2 9.891 C 6.2 9.944 6.2 10.001 6.2 10.061 C 6.2 10.114 6.203 10.168 6.21 10.221 C 6.21 10.261 6.21 10.298 6.21 10.331 C 6.21 10.364 6.213 10.401 6.22 10.441 C 6.22 10.481 6.216 10.511 6.21 10.531 C 6.203 10.551 6.2 10.571 6.2 10.591 C 6.173 10.591 6.16 10.591 6.16 10.591 C 6.153 10.591 6.143 10.591 6.13 10.591 C 6.096 10.604 6.073 10.614 6.06 10.621 C 6.053 10.628 6.043 10.638 6.03 10.651 C 6.016 10.651 6.003 10.651 5.99 10.651 C 5.976 10.651 5.966 10.658 5.96 10.671 C 5.946 10.664 5.936 10.661 5.93 10.661 C 5.916 10.668 5.906 10.671 5.9 10.671 C 5.866 10.671 5.843 10.674 5.83 10.681 C 5.816 10.688 5.796 10.691 5.77 10.691 C 5.75 10.658 5.736 10.631 5.73 10.611 C 5.716 10.591 5.7 10.581 5.68 10.581 C 5.646 10.528 5.62 10.474 5.6 10.421 C 5.586 10.361 5.563 10.308 5.53 10.261 C 5.53 10.241 5.526 10.228 5.52 10.221 C 5.513 10.221 5.506 10.211 5.5 10.191 C 5.493 10.171 5.486 10.151 5.48 10.131 C 5.473 10.104 5.463 10.081 5.45 10.061 C 5.423 10.014 5.4 9.971 5.38 9.931 C 5.36 9.884 5.343 9.838 5.33 9.791 C 5.316 9.771 5.31 9.751 5.31 9.731 C 5.303 9.711 5.296 9.691 5.29 9.671 C 5.283 9.658 5.276 9.644 5.27 9.631 C 5.263 9.624 5.256 9.618 5.25 9.611 C 5.236 9.578 5.223 9.548 5.21 9.521 C 5.19 9.494 5.173 9.464 5.16 9.431 C 5.153 9.424 5.146 9.414 5.14 9.401 C 5.126 9.388 5.116 9.374 5.11 9.361 C 5.096 9.341 5.086 9.324 5.08 9.311 C 5.08 9.291 5.073 9.271 5.06 9.251 C 5.06 9.238 5.053 9.221 5.04 9.201 C 5.026 9.188 5.02 9.171 5.02 9.151 C 5.013 9.138 5.006 9.124 5 9.111 C 5 9.098 4.993 9.088 4.98 9.081 C 4.96 9.114 4.95 9.134 4.95 9.141 C 4.95 9.174 4.95 9.201 4.95 9.221 C 4.95 9.241 4.95 9.258 4.95 9.271 C 4.95 9.291 4.95 9.308 4.95 9.321 C 4.956 9.341 4.96 9.358 4.96 9.371 C 4.966 9.438 4.97 9.501 4.97 9.561 C 4.97 9.628 4.97 9.691 4.97 9.751 C 4.97 9.804 4.97 9.841 4.97 9.861 C 4.97 9.888 4.973 9.914 4.98 9.941 C 4.98 9.968 4.98 9.994 4.98 10.021 C 4.98 10.048 4.98 10.074 4.98 10.101 C 4.98 10.161 4.98 10.221 4.98 10.281 C 4.986 10.334 4.99 10.391 4.99 10.451 L 4.99 10.541 C 4.99 10.574 4.983 10.601 4.97 10.621 C 4.93 10.621 4.906 10.621 4.9 10.621 C 4.886 10.614 4.873 10.611 4.86 10.611 C 4.846 10.611 4.833 10.614 4.82 10.621 C 4.813 10.634 4.803 10.644 4.79 10.651 C 4.763 10.651 4.746 10.651 4.74 10.651 C 4.74 10.658 4.736 10.664 4.73 10.671 C 4.723 10.671 4.716 10.671 4.71 10.671 C 4.703 10.664 4.693 10.661 4.68 10.661 C 4.66 10.654 4.643 10.651 4.63 10.651 C 4.616 10.658 4.603 10.664 4.59 10.671 C 4.576 10.678 4.56 10.681 4.54 10.681 C 4.526 10.654 4.52 10.621 4.52 10.581 C 4.513 10.541 4.503 10.508 4.49 10.481 C 4.49 10.468 4.49 10.461 4.49 10.461 C 4.496 10.454 4.5 10.444 4.5 10.431 C 4.5 10.371 4.496 10.311 4.49 10.251 C 4.49 10.198 4.49 10.141 4.49 10.081 C 4.49 10.028 4.486 9.978 4.48 9.931 C 4.473 9.884 4.47 9.838 4.47 9.791 C 4.47 9.771 4.47 9.754 4.47 9.741 C 4.476 9.728 4.48 9.711 4.48 9.691 C 4.48 9.684 4.48 9.678 4.48 9.671 C 4.473 9.658 4.47 9.651 4.47 9.651 C 4.47 9.604 4.466 9.554 4.46 9.501 C 4.46 9.454 4.46 9.404 4.46 9.351 C 4.46 9.324 4.46 9.294 4.46 9.261 C 4.453 9.234 4.45 9.204 4.45 9.171 C 4.45 9.158 4.453 9.141 4.46 9.121 C 4.46 9.108 4.46 9.094 4.46 9.081 L 4.46 8.911 C 4.453 8.878 4.453 8.858 4.46 8.851 C 4.46 8.838 4.46 8.828 4.46 8.821 C 4.46 8.794 4.456 8.771 4.45 8.751 C 4.45 8.731 4.45 8.708 4.45 8.681 C 4.45 8.661 4.45 8.641 4.45 8.621 C 4.456 8.608 4.46 8.591 4.46 8.571 C 4.46 8.531 4.456 8.494 4.45 8.461 C 4.45 8.421 4.45 8.381 4.45 8.341 L 4.45 8.011 C 4.45 7.998 4.446 7.981 4.44 7.961 C 4.44 7.941 4.44 7.921 4.44 7.901 C 4.453 7.861 4.466 7.841 4.48 7.841 C 4.493 7.841 4.506 7.838 4.52 7.831 C 4.546 7.838 4.57 7.834 4.59 7.821 C 4.623 7.828 4.643 7.824 4.65 7.811 C 4.656 7.818 4.663 7.821 4.67 7.821 C 4.683 7.814 4.693 7.814 4.7 7.821 C 4.706 7.814 4.713 7.808 4.72 7.801 C 4.726 7.794 4.733 7.791 4.74 7.791 C 4.773 7.771 4.79 7.761 4.79 7.761 C 4.796 7.754 4.803 7.748 4.81 7.741 C 4.823 7.741 4.833 7.744 4.84 7.751 C 4.84 7.764 4.846 7.771 4.86 7.771 C 4.866 7.778 4.873 7.788 4.88 7.801 C 4.893 7.808 4.903 7.814 4.91 7.821 C 4.93 7.868 4.956 7.904 4.99 7.931 C 5.01 8.004 5.036 8.071 5.07 8.131 C 5.096 8.191 5.126 8.254 5.16 8.321 C 5.16 8.328 5.16 8.338 5.16 8.351 C 5.166 8.358 5.17 8.364 5.17 8.371 C 5.183 8.404 5.203 8.441 5.23 8.481 C 5.256 8.528 5.276 8.564 5.29 8.591 C 5.296 8.604 5.303 8.614 5.31 8.621 C 5.323 8.628 5.33 8.638 5.33 8.651 C 5.336 8.664 5.343 8.678 5.35 8.691 C 5.356 8.711 5.363 8.728 5.37 8.741 C 5.383 8.768 5.4 8.798 5.42 8.831 C 5.433 8.858 5.45 8.888 5.47 8.921 C 5.476 8.934 5.483 8.951 5.49 8.971 C 5.496 8.984 5.503 8.998 5.51 9.011 C 5.53 9.058 5.55 9.094 5.57 9.121 C 5.583 9.148 5.593 9.174 5.6 9.201 C 5.62 9.221 5.636 9.244 5.65 9.271 C 5.656 9.298 5.67 9.318 5.69 9.331 C 5.696 9.318 5.7 9.278 5.7 9.211 C 5.7 9.151 5.7 9.081 5.7 9.001 C 5.7 8.928 5.7 8.858 5.7 8.791 C 5.7 8.724 5.7 8.678 5.7 8.651 C 5.7 8.584 5.7 8.514 5.7 8.441 C 5.7 8.374 5.7 8.308 5.7 8.241 C 5.7 8.188 5.7 8.131 5.7 8.071 C 5.7 8.018 5.7 7.964 5.7 7.911 C 5.706 7.878 5.71 7.851 5.71 7.831 C 5.703 7.804 5.703 7.778 5.71 7.751 C 5.71 7.738 5.713 7.724 5.72 7.711 C 5.733 7.698 5.74 7.684 5.74 7.671 C 5.773 7.671 5.8 7.678 5.82 7.691 C 5.833 7.684 5.853 7.681 5.88 7.681 C 5.9 7.681 5.916 7.681 5.93 7.681 C 5.956 7.674 5.97 7.671 5.97 7.671 C 5.97 7.671 5.973 7.671 5.98 7.671 C 5.993 7.678 6.003 7.681 6.01 7.681 C 6.016 7.681 6.026 7.684 6.04 7.691 C 6.066 7.684 6.086 7.688 6.1 7.701 ZM 9.817 8.751 C 9.79 8.798 9.757 8.844 9.717 8.891 C 9.677 8.931 9.64 8.971 9.607 9.011 C 9.58 9.044 9.554 9.078 9.527 9.111 C 9.507 9.144 9.484 9.174 9.457 9.201 C 9.437 9.228 9.417 9.248 9.397 9.261 C 9.377 9.281 9.357 9.304 9.337 9.331 C 9.324 9.338 9.314 9.348 9.307 9.361 C 9.294 9.374 9.28 9.388 9.267 9.401 C 9.307 9.481 9.354 9.558 9.407 9.631 C 9.46 9.698 9.517 9.764 9.577 9.831 C 9.604 9.864 9.63 9.894 9.657 9.921 C 9.69 9.954 9.717 9.988 9.737 10.021 C 9.75 10.061 9.767 10.091 9.787 10.111 C 9.807 10.131 9.827 10.151 9.847 10.171 C 9.86 10.198 9.874 10.221 9.887 10.241 C 9.9 10.261 9.917 10.278 9.937 10.291 C 9.937 10.304 9.944 10.318 9.957 10.331 C 9.97 10.344 9.98 10.358 9.987 10.371 C 9.987 10.384 9.987 10.394 9.987 10.401 C 9.994 10.408 9.997 10.414 9.997 10.421 C 9.984 10.441 9.967 10.458 9.947 10.471 C 9.927 10.484 9.91 10.501 9.897 10.521 C 9.87 10.521 9.847 10.528 9.827 10.541 C 9.814 10.554 9.79 10.561 9.757 10.561 C 9.744 10.574 9.734 10.588 9.727 10.601 C 9.72 10.608 9.71 10.618 9.697 10.631 C 9.677 10.631 9.657 10.638 9.637 10.651 C 9.624 10.664 9.604 10.671 9.577 10.671 C 9.557 10.658 9.537 10.638 9.517 10.611 C 9.504 10.591 9.484 10.574 9.457 10.561 C 9.457 10.548 9.454 10.534 9.447 10.521 C 9.44 10.514 9.434 10.504 9.427 10.491 C 9.38 10.444 9.337 10.394 9.297 10.341 C 9.264 10.281 9.227 10.224 9.187 10.171 C 9.167 10.151 9.144 10.128 9.117 10.101 C 9.097 10.081 9.077 10.058 9.057 10.031 C 9.044 10.018 9.03 10.001 9.017 9.981 C 9.004 9.961 8.99 9.941 8.977 9.921 C 8.957 9.908 8.94 9.888 8.927 9.861 C 8.914 9.841 8.897 9.824 8.877 9.811 C 8.857 9.824 8.837 9.841 8.817 9.861 C 8.797 9.888 8.777 9.908 8.757 9.921 C 8.737 9.941 8.717 9.958 8.697 9.971 C 8.677 9.991 8.657 10.008 8.637 10.021 C 8.63 10.081 8.627 10.141 8.627 10.201 C 8.627 10.254 8.627 10.308 8.627 10.361 C 8.627 10.408 8.627 10.451 8.627 10.491 C 8.62 10.531 8.614 10.571 8.607 10.611 C 8.594 10.618 8.58 10.611 8.567 10.591 C 8.554 10.578 8.54 10.568 8.527 10.561 C 8.52 10.568 8.514 10.574 8.507 10.581 C 8.5 10.588 8.49 10.588 8.477 10.581 C 8.464 10.594 8.444 10.608 8.417 10.621 C 8.404 10.621 8.39 10.621 8.377 10.621 C 8.357 10.628 8.34 10.631 8.327 10.631 C 8.307 10.631 8.294 10.628 8.287 10.621 C 8.26 10.641 8.24 10.651 8.227 10.651 C 8.207 10.651 8.194 10.651 8.187 10.651 C 8.18 10.638 8.174 10.621 8.167 10.601 C 8.16 10.588 8.157 10.568 8.157 10.541 C 8.15 10.534 8.144 10.524 8.137 10.511 C 8.137 10.498 8.134 10.484 8.127 10.471 C 8.127 10.464 8.127 10.454 8.127 10.441 C 8.127 10.434 8.127 10.424 8.127 10.411 C 8.127 10.364 8.127 10.321 8.127 10.281 C 8.12 10.241 8.12 10.198 8.127 10.151 C 8.12 10.138 8.117 10.124 8.117 10.111 C 8.117 10.098 8.117 10.088 8.117 10.081 C 8.117 10.068 8.117 10.058 8.117 10.051 C 8.117 10.038 8.12 10.028 8.127 10.021 C 8.12 9.988 8.114 9.954 8.107 9.921 C 8.107 9.881 8.107 9.844 8.107 9.811 C 8.107 9.791 8.11 9.771 8.117 9.751 C 8.117 9.731 8.117 9.711 8.117 9.691 C 8.117 9.651 8.117 9.608 8.117 9.561 C 8.11 9.521 8.107 9.481 8.107 9.441 C 8.107 9.414 8.107 9.391 8.107 9.371 C 8.107 9.358 8.11 9.344 8.117 9.331 C 8.117 9.311 8.114 9.294 8.107 9.281 C 8.114 9.268 8.117 9.258 8.117 9.251 C 8.124 9.244 8.127 9.234 8.127 9.221 C 8.127 9.188 8.127 9.154 8.127 9.121 C 8.127 9.088 8.127 9.054 8.127 9.021 C 8.127 8.994 8.127 8.968 8.127 8.941 C 8.134 8.914 8.137 8.888 8.137 8.861 C 8.137 8.841 8.137 8.818 8.137 8.791 C 8.144 8.771 8.147 8.751 8.147 8.731 C 8.154 8.711 8.157 8.688 8.157 8.661 C 8.157 8.641 8.157 8.621 8.157 8.601 C 8.157 8.548 8.157 8.491 8.157 8.431 C 8.157 8.378 8.154 8.324 8.147 8.271 C 8.14 8.258 8.137 8.241 8.137 8.221 C 8.137 8.208 8.137 8.194 8.137 8.181 C 8.13 8.128 8.124 8.074 8.117 8.021 C 8.117 7.974 8.114 7.924 8.107 7.871 C 8.114 7.864 8.117 7.854 8.117 7.841 C 8.117 7.834 8.117 7.828 8.117 7.821 C 8.117 7.808 8.117 7.794 8.117 7.781 C 8.117 7.768 8.114 7.754 8.107 7.741 C 8.114 7.741 8.12 7.738 8.127 7.731 C 8.134 7.724 8.137 7.718 8.137 7.711 C 8.157 7.711 8.174 7.711 8.187 7.711 C 8.207 7.711 8.224 7.718 8.237 7.731 C 8.25 7.724 8.264 7.718 8.277 7.711 C 8.297 7.704 8.314 7.701 8.327 7.701 C 8.347 7.701 8.36 7.708 8.367 7.721 C 8.38 7.714 8.39 7.708 8.397 7.701 C 8.397 7.694 8.404 7.691 8.417 7.691 C 8.457 7.684 8.484 7.681 8.497 7.681 C 8.51 7.681 8.524 7.681 8.537 7.681 C 8.544 7.688 8.55 7.694 8.557 7.701 C 8.564 7.708 8.567 7.714 8.567 7.721 C 8.627 7.741 8.674 7.771 8.707 7.811 C 8.74 7.851 8.78 7.884 8.827 7.911 C 8.84 7.918 8.85 7.924 8.857 7.931 C 8.87 7.931 8.88 7.934 8.887 7.941 C 8.914 7.961 8.937 7.978 8.957 7.991 C 8.984 8.011 9.01 8.028 9.037 8.041 C 9.064 8.054 9.077 8.061 9.077 8.061 C 9.084 8.061 9.087 8.064 9.087 8.071 C 9.147 8.091 9.2 8.121 9.247 8.161 C 9.294 8.194 9.34 8.224 9.387 8.251 C 9.407 8.264 9.43 8.274 9.457 8.281 C 9.484 8.294 9.51 8.308 9.537 8.321 C 9.564 8.328 9.59 8.338 9.617 8.351 C 9.644 8.364 9.664 8.381 9.677 8.401 C 9.704 8.428 9.727 8.448 9.747 8.461 C 9.774 8.468 9.797 8.481 9.817 8.501 L 9.817 8.601 C 9.817 8.621 9.817 8.638 9.817 8.651 C 9.81 8.671 9.807 8.688 9.807 8.701 C 9.807 8.714 9.81 8.731 9.817 8.751 Z M 9.277 8.651 C 9.25 8.631 9.224 8.614 9.197 8.601 C 9.17 8.588 9.144 8.568 9.117 8.541 C 9.104 8.534 9.074 8.521 9.027 8.501 C 8.98 8.481 8.93 8.461 8.877 8.441 C 8.83 8.421 8.787 8.401 8.747 8.381 C 8.707 8.368 8.684 8.361 8.677 8.361 C 8.67 8.361 8.667 8.378 8.667 8.411 C 8.667 8.438 8.667 8.471 8.667 8.511 C 8.667 8.544 8.667 8.578 8.667 8.611 C 8.667 8.651 8.667 8.674 8.667 8.681 C 8.667 8.728 8.667 8.774 8.667 8.821 C 8.66 8.868 8.657 8.918 8.657 8.971 C 8.65 8.978 8.644 8.984 8.637 8.991 C 8.637 8.998 8.637 9.004 8.637 9.011 C 8.63 9.044 8.627 9.091 8.627 9.151 C 8.627 9.211 8.627 9.261 8.627 9.301 C 8.627 9.321 8.627 9.338 8.627 9.351 C 8.627 9.364 8.627 9.381 8.627 9.401 C 8.64 9.401 8.65 9.398 8.657 9.391 C 8.664 9.384 8.674 9.381 8.687 9.381 C 8.72 9.341 8.754 9.304 8.787 9.271 C 8.82 9.238 8.854 9.204 8.887 9.171 C 8.907 9.151 8.924 9.131 8.937 9.111 C 8.95 9.098 8.967 9.084 8.987 9.071 C 9 9.051 9.014 9.034 9.027 9.021 C 9.034 9.008 9.044 8.994 9.057 8.981 C 9.097 8.941 9.134 8.904 9.167 8.871 C 9.207 8.831 9.24 8.788 9.267 8.741 C 9.287 8.728 9.304 8.708 9.317 8.681 C 9.304 8.674 9.29 8.664 9.277 8.651 Z" transform="matrix(1, 0, 0, 1, 0, 0)" style="fill: rgb(225, 225, 225); white-space: pre;"/>
    <path d="M 1.726 11.748 C 1.726 11.755 1.729 11.761 1.736 11.768 C 1.736 11.768 1.736 11.771 1.736 11.778 C 1.736 11.778 1.736 11.781 1.736 11.788 C 1.736 11.788 1.736 11.788 1.736 11.788 C 1.736 11.795 1.736 11.801 1.736 11.808 C 1.736 11.808 1.733 11.811 1.726 11.818 C 1.699 11.825 1.676 11.835 1.656 11.848 C 1.629 11.855 1.603 11.861 1.576 11.868 C 1.569 11.875 1.563 11.878 1.556 11.878 C 1.549 11.878 1.543 11.878 1.536 11.878 C 1.536 11.885 1.533 11.888 1.526 11.888 C 1.526 11.888 1.523 11.888 1.516 11.888 C 1.516 11.888 1.513 11.891 1.506 11.898 C 1.506 11.898 1.503 11.898 1.496 11.898 C 1.496 11.898 1.493 11.898 1.486 11.898 C 1.479 11.898 1.473 11.898 1.466 11.898 C 1.459 11.898 1.456 11.898 1.456 11.898 C 1.456 11.905 1.456 11.908 1.456 11.908 C 1.456 11.915 1.453 11.918 1.446 11.918 C 1.446 11.918 1.443 11.918 1.436 11.918 C 1.429 11.918 1.423 11.918 1.416 11.918 C 1.409 11.918 1.403 11.918 1.396 11.918 C 1.396 11.911 1.396 11.908 1.396 11.908 C 1.396 11.908 1.396 11.905 1.396 11.898 C 1.389 11.898 1.383 11.898 1.376 11.898 C 1.376 11.905 1.373 11.908 1.366 11.908 C 1.366 11.901 1.366 11.898 1.366 11.898 C 1.366 11.891 1.363 11.888 1.356 11.888 C 1.356 11.881 1.356 11.878 1.356 11.878 C 1.356 11.871 1.356 11.868 1.356 11.868 C 1.356 11.861 1.356 11.855 1.356 11.848 C 1.356 11.841 1.359 11.838 1.366 11.838 C 1.366 11.798 1.366 11.761 1.366 11.728 C 1.366 11.688 1.366 11.651 1.366 11.618 C 1.366 11.611 1.366 11.605 1.366 11.598 C 1.366 11.591 1.366 11.585 1.366 11.578 C 1.366 11.571 1.366 11.565 1.366 11.558 C 1.366 11.558 1.366 11.555 1.366 11.548 C 1.366 11.541 1.366 11.538 1.366 11.538 C 1.366 11.531 1.366 11.528 1.366 11.528 C 1.366 11.521 1.366 11.515 1.366 11.508 C 1.366 11.508 1.366 11.505 1.366 11.498 C 1.366 11.498 1.366 11.495 1.366 11.488 C 1.366 11.488 1.366 11.485 1.366 11.478 C 1.366 11.478 1.366 11.475 1.366 11.468 C 1.366 11.468 1.366 11.465 1.366 11.458 C 1.366 11.451 1.366 11.445 1.366 11.438 C 1.366 11.425 1.363 11.408 1.356 11.388 C 1.356 11.375 1.356 11.358 1.356 11.338 C 1.356 11.318 1.356 11.298 1.356 11.278 C 1.356 11.251 1.356 11.228 1.356 11.208 C 1.356 11.201 1.356 11.195 1.356 11.188 C 1.369 11.188 1.376 11.188 1.376 11.188 C 1.383 11.188 1.389 11.188 1.396 11.188 C 1.403 11.188 1.406 11.188 1.406 11.188 C 1.406 11.188 1.409 11.188 1.416 11.188 C 1.416 11.188 1.419 11.188 1.426 11.188 C 1.426 11.188 1.426 11.188 1.426 11.188 C 1.439 11.188 1.446 11.188 1.446 11.188 C 1.446 11.188 1.446 11.188 1.446 11.188 C 1.453 11.188 1.456 11.188 1.456 11.188 C 1.456 11.188 1.459 11.188 1.466 11.188 C 1.466 11.188 1.469 11.191 1.476 11.198 C 1.476 11.198 1.476 11.201 1.476 11.208 C 1.476 11.215 1.479 11.221 1.486 11.228 C 1.486 11.255 1.486 11.281 1.486 11.308 C 1.486 11.335 1.486 11.358 1.486 11.378 C 1.486 11.391 1.486 11.405 1.486 11.418 C 1.486 11.431 1.486 11.445 1.486 11.458 C 1.486 11.478 1.486 11.498 1.486 11.518 C 1.493 11.538 1.496 11.558 1.496 11.578 C 1.496 11.578 1.496 11.581 1.496 11.588 C 1.496 11.588 1.496 11.588 1.496 11.588 C 1.496 11.601 1.496 11.611 1.496 11.618 C 1.489 11.625 1.486 11.631 1.486 11.638 L 1.486 11.708 C 1.486 11.715 1.486 11.721 1.486 11.728 C 1.486 11.741 1.486 11.748 1.486 11.748 L 1.496 11.768 C 1.503 11.761 1.509 11.758 1.516 11.758 C 1.523 11.751 1.529 11.748 1.536 11.748 C 1.543 11.748 1.549 11.748 1.556 11.748 C 1.563 11.748 1.566 11.745 1.566 11.738 C 1.579 11.738 1.586 11.735 1.586 11.728 C 1.593 11.728 1.599 11.728 1.606 11.728 C 1.619 11.721 1.629 11.718 1.636 11.718 C 1.649 11.711 1.663 11.705 1.676 11.698 C 1.676 11.705 1.679 11.705 1.686 11.698 C 1.693 11.698 1.699 11.698 1.706 11.698 C 1.713 11.705 1.716 11.711 1.716 11.718 C 1.716 11.725 1.719 11.728 1.726 11.728 C 1.719 11.735 1.719 11.738 1.726 11.738 C 1.726 11.738 1.726 11.738 1.726 11.738 C 1.726 11.738 1.726 11.741 1.726 11.748 C 1.726 11.748 1.726 11.748 1.726 11.748 ZM 1.984 11.178 L 1.994 11.178 C 1.994 11.191 1.997 11.205 2.004 11.218 C 2.004 11.225 2.007 11.235 2.014 11.248 C 2.021 11.248 2.027 11.248 2.034 11.248 C 2.034 11.248 2.034 11.248 2.034 11.248 C 2.047 11.268 2.054 11.288 2.054 11.308 C 2.054 11.328 2.057 11.348 2.064 11.368 C 2.071 11.381 2.077 11.398 2.084 11.418 C 2.091 11.438 2.097 11.455 2.104 11.468 C 2.104 11.475 2.107 11.481 2.114 11.488 C 2.114 11.488 2.114 11.488 2.114 11.488 C 2.114 11.501 2.117 11.511 2.124 11.518 C 2.124 11.531 2.127 11.545 2.134 11.558 C 2.134 11.565 2.137 11.571 2.144 11.578 C 2.144 11.578 2.144 11.581 2.144 11.588 C 2.151 11.595 2.154 11.601 2.154 11.608 C 2.154 11.615 2.154 11.621 2.154 11.628 C 2.161 11.641 2.167 11.655 2.174 11.668 C 2.181 11.681 2.184 11.695 2.184 11.708 C 2.191 11.715 2.197 11.725 2.204 11.738 C 2.204 11.751 2.207 11.768 2.214 11.788 C 2.221 11.808 2.227 11.825 2.234 11.838 C 2.241 11.851 2.244 11.858 2.244 11.858 C 2.244 11.865 2.244 11.871 2.244 11.878 C 2.244 11.885 2.244 11.891 2.244 11.898 C 2.244 11.905 2.241 11.908 2.234 11.908 C 2.227 11.908 2.224 11.908 2.224 11.908 C 2.217 11.908 2.214 11.908 2.214 11.908 C 2.214 11.908 2.211 11.911 2.204 11.918 C 2.204 11.918 2.204 11.918 2.204 11.918 C 2.197 11.918 2.194 11.918 2.194 11.918 C 2.187 11.918 2.184 11.918 2.184 11.918 C 2.177 11.918 2.174 11.918 2.174 11.918 C 2.167 11.918 2.164 11.918 2.164 11.918 C 2.157 11.925 2.154 11.928 2.154 11.928 C 2.154 11.928 2.151 11.928 2.144 11.928 C 2.144 11.928 2.141 11.928 2.134 11.928 C 2.134 11.928 2.134 11.925 2.134 11.918 C 2.134 11.918 2.131 11.915 2.124 11.908 C 2.117 11.901 2.114 11.891 2.114 11.878 C 2.114 11.871 2.111 11.865 2.104 11.858 C 2.104 11.851 2.101 11.845 2.094 11.838 C 2.094 11.831 2.094 11.825 2.094 11.818 C 2.087 11.818 2.081 11.818 2.074 11.818 C 2.074 11.818 2.074 11.821 2.074 11.828 C 2.067 11.828 2.064 11.828 2.064 11.828 C 2.064 11.828 2.061 11.831 2.054 11.838 C 2.054 11.838 2.051 11.838 2.044 11.838 C 2.044 11.838 2.041 11.838 2.034 11.838 C 2.034 11.845 2.031 11.848 2.024 11.848 C 2.024 11.848 2.021 11.848 2.014 11.848 C 2.007 11.855 2.001 11.861 1.994 11.868 C 1.994 11.868 1.991 11.868 1.984 11.868 C 1.971 11.868 1.961 11.871 1.954 11.878 C 1.941 11.878 1.931 11.878 1.924 11.878 C 1.911 11.871 1.904 11.868 1.904 11.868 C 1.904 11.868 1.901 11.868 1.894 11.868 C 1.894 11.855 1.891 11.848 1.884 11.848 C 1.884 11.841 1.884 11.838 1.884 11.838 C 1.884 11.831 1.887 11.828 1.894 11.828 C 1.901 11.821 1.904 11.818 1.904 11.818 C 1.904 11.811 1.907 11.808 1.914 11.808 C 1.914 11.801 1.917 11.798 1.924 11.798 C 1.924 11.798 1.924 11.795 1.924 11.788 C 1.931 11.788 1.934 11.788 1.934 11.788 C 1.934 11.788 1.934 11.785 1.934 11.778 C 1.941 11.778 1.947 11.778 1.954 11.778 C 1.961 11.771 1.964 11.768 1.964 11.768 C 1.971 11.761 1.974 11.758 1.974 11.758 C 1.974 11.758 1.977 11.758 1.984 11.758 C 1.991 11.758 1.994 11.758 1.994 11.758 C 2.001 11.758 2.007 11.758 2.014 11.758 C 2.014 11.758 2.014 11.758 2.014 11.758 C 2.021 11.758 2.024 11.758 2.024 11.758 C 2.031 11.751 2.037 11.748 2.044 11.748 C 2.051 11.748 2.057 11.745 2.064 11.738 C 2.064 11.731 2.064 11.725 2.064 11.718 C 2.057 11.711 2.054 11.705 2.054 11.698 C 2.054 11.691 2.051 11.685 2.044 11.678 C 2.044 11.671 2.041 11.661 2.034 11.648 C 2.027 11.621 2.021 11.595 2.014 11.568 C 2.001 11.548 1.991 11.521 1.984 11.488 C 1.984 11.488 1.984 11.485 1.984 11.478 C 1.984 11.478 1.984 11.475 1.984 11.468 C 1.977 11.481 1.974 11.488 1.974 11.488 C 1.974 11.488 1.974 11.488 1.974 11.488 C 1.974 11.495 1.974 11.498 1.974 11.498 C 1.974 11.498 1.971 11.501 1.964 11.508 C 1.964 11.508 1.964 11.511 1.964 11.518 C 1.964 11.525 1.961 11.531 1.954 11.538 C 1.954 11.551 1.954 11.565 1.954 11.578 C 1.947 11.585 1.944 11.595 1.944 11.608 C 1.937 11.628 1.931 11.648 1.924 11.668 C 1.917 11.688 1.911 11.708 1.904 11.728 C 1.904 11.741 1.901 11.748 1.894 11.748 C 1.894 11.755 1.894 11.761 1.894 11.768 C 1.894 11.768 1.891 11.771 1.884 11.778 C 1.884 11.785 1.884 11.788 1.884 11.788 C 1.877 11.808 1.871 11.831 1.864 11.858 C 1.857 11.878 1.851 11.898 1.844 11.918 C 1.837 11.918 1.834 11.918 1.834 11.918 C 1.834 11.925 1.831 11.928 1.824 11.928 C 1.817 11.928 1.814 11.925 1.814 11.918 C 1.814 11.918 1.814 11.918 1.814 11.918 C 1.814 11.918 1.811 11.918 1.804 11.918 C 1.804 11.918 1.804 11.918 1.804 11.918 C 1.797 11.918 1.794 11.918 1.794 11.918 C 1.787 11.918 1.784 11.918 1.784 11.918 C 1.777 11.918 1.771 11.918 1.764 11.918 C 1.764 11.918 1.761 11.918 1.754 11.918 C 1.747 11.918 1.744 11.918 1.744 11.918 C 1.737 11.918 1.734 11.918 1.734 11.918 C 1.734 11.918 1.731 11.915 1.724 11.908 C 1.724 11.908 1.724 11.908 1.724 11.908 C 1.724 11.901 1.724 11.898 1.724 11.898 C 1.724 11.891 1.724 11.885 1.724 11.878 C 1.737 11.845 1.747 11.811 1.754 11.778 C 1.767 11.745 1.781 11.711 1.794 11.678 C 1.801 11.658 1.804 11.641 1.804 11.628 C 1.811 11.615 1.817 11.598 1.824 11.578 C 1.824 11.571 1.827 11.565 1.834 11.558 C 1.834 11.545 1.837 11.535 1.844 11.528 C 1.844 11.515 1.847 11.498 1.854 11.478 C 1.861 11.465 1.867 11.448 1.874 11.428 C 1.874 11.428 1.874 11.425 1.874 11.418 C 1.874 11.418 1.874 11.415 1.874 11.408 L 1.874 11.398 C 1.881 11.391 1.884 11.385 1.884 11.378 C 1.891 11.378 1.894 11.375 1.894 11.368 C 1.894 11.361 1.897 11.351 1.904 11.338 C 1.904 11.331 1.904 11.325 1.904 11.318 C 1.904 11.305 1.904 11.291 1.904 11.278 C 1.904 11.265 1.907 11.255 1.914 11.248 C 1.914 11.248 1.914 11.245 1.914 11.238 C 1.914 11.238 1.914 11.238 1.914 11.238 C 1.921 11.238 1.924 11.235 1.924 11.228 C 1.924 11.228 1.924 11.228 1.924 11.228 C 1.931 11.221 1.931 11.215 1.924 11.208 C 1.924 11.208 1.924 11.205 1.924 11.198 C 1.931 11.198 1.934 11.195 1.934 11.188 C 1.934 11.188 1.934 11.185 1.934 11.178 C 1.934 11.178 1.937 11.178 1.944 11.178 C 1.944 11.171 1.944 11.168 1.944 11.168 C 1.951 11.168 1.957 11.168 1.964 11.168 C 1.964 11.168 1.967 11.168 1.974 11.168 C 1.981 11.175 1.984 11.178 1.984 11.178 ZM 2.488 11.198 C 2.488 11.198 2.488 11.201 2.488 11.208 C 2.488 11.208 2.488 11.208 2.488 11.208 C 2.495 11.215 2.498 11.218 2.498 11.218 C 2.505 11.218 2.508 11.221 2.508 11.228 C 2.515 11.228 2.518 11.231 2.518 11.238 C 2.518 11.238 2.518 11.238 2.518 11.238 C 2.525 11.245 2.528 11.248 2.528 11.248 C 2.528 11.248 2.531 11.251 2.538 11.258 C 2.538 11.258 2.541 11.261 2.548 11.268 C 2.548 11.268 2.548 11.271 2.548 11.278 C 2.548 11.278 2.541 11.281 2.528 11.288 C 2.521 11.301 2.515 11.311 2.508 11.318 C 2.495 11.325 2.485 11.335 2.478 11.348 C 2.471 11.355 2.465 11.358 2.458 11.358 C 2.458 11.365 2.455 11.368 2.448 11.368 C 2.448 11.368 2.448 11.371 2.448 11.378 C 2.441 11.378 2.438 11.381 2.438 11.388 C 2.431 11.388 2.428 11.391 2.428 11.398 C 2.421 11.405 2.411 11.411 2.398 11.418 C 2.385 11.431 2.375 11.441 2.368 11.448 C 2.375 11.448 2.378 11.451 2.378 11.458 C 2.378 11.458 2.378 11.458 2.378 11.458 C 2.385 11.465 2.391 11.468 2.398 11.468 C 2.405 11.475 2.411 11.481 2.418 11.488 C 2.425 11.495 2.431 11.498 2.438 11.498 C 2.445 11.505 2.448 11.508 2.448 11.508 C 2.455 11.515 2.458 11.521 2.458 11.528 C 2.465 11.528 2.471 11.531 2.478 11.538 C 2.485 11.545 2.491 11.548 2.498 11.548 C 2.511 11.561 2.525 11.575 2.538 11.588 C 2.545 11.595 2.555 11.605 2.568 11.618 L 2.578 11.628 C 2.578 11.628 2.581 11.635 2.588 11.648 C 2.588 11.655 2.588 11.658 2.588 11.658 C 2.588 11.665 2.588 11.668 2.588 11.668 C 2.595 11.675 2.598 11.678 2.598 11.678 C 2.598 11.691 2.598 11.698 2.598 11.698 C 2.585 11.711 2.575 11.721 2.568 11.728 C 2.555 11.735 2.545 11.741 2.538 11.748 C 2.531 11.755 2.528 11.761 2.528 11.768 C 2.521 11.775 2.515 11.781 2.508 11.788 C 2.501 11.795 2.498 11.798 2.498 11.798 C 2.491 11.805 2.485 11.808 2.478 11.808 C 2.471 11.815 2.465 11.821 2.458 11.828 C 2.451 11.835 2.445 11.841 2.438 11.848 C 2.431 11.855 2.425 11.861 2.418 11.868 C 2.418 11.868 2.415 11.871 2.408 11.878 C 2.401 11.885 2.398 11.888 2.398 11.888 C 2.391 11.895 2.385 11.901 2.378 11.908 C 2.378 11.908 2.375 11.911 2.368 11.918 C 2.368 11.918 2.365 11.921 2.358 11.928 C 2.358 11.928 2.355 11.928 2.348 11.928 C 2.348 11.935 2.345 11.938 2.338 11.938 C 2.331 11.938 2.325 11.935 2.318 11.928 C 2.318 11.928 2.315 11.925 2.308 11.918 C 2.301 11.918 2.298 11.915 2.298 11.908 C 2.291 11.908 2.288 11.908 2.288 11.908 C 2.281 11.901 2.278 11.898 2.278 11.898 C 2.278 11.898 2.278 11.895 2.278 11.888 C 2.271 11.888 2.265 11.885 2.258 11.878 C 2.258 11.871 2.258 11.868 2.258 11.868 C 2.265 11.868 2.268 11.865 2.268 11.858 C 2.268 11.851 2.271 11.845 2.278 11.838 C 2.285 11.838 2.291 11.835 2.298 11.828 C 2.305 11.821 2.308 11.815 2.308 11.808 C 2.315 11.801 2.321 11.795 2.328 11.788 C 2.328 11.788 2.331 11.788 2.338 11.788 C 2.338 11.781 2.341 11.778 2.348 11.778 C 2.355 11.771 2.361 11.765 2.368 11.758 C 2.375 11.751 2.381 11.745 2.388 11.738 C 2.401 11.725 2.415 11.715 2.428 11.708 C 2.435 11.695 2.445 11.681 2.458 11.668 C 2.458 11.668 2.455 11.668 2.448 11.668 C 2.448 11.668 2.448 11.668 2.448 11.668 C 2.441 11.655 2.431 11.645 2.418 11.638 C 2.411 11.625 2.401 11.615 2.388 11.608 C 2.381 11.608 2.378 11.605 2.378 11.598 C 2.365 11.591 2.355 11.581 2.348 11.568 C 2.335 11.561 2.321 11.555 2.308 11.548 C 2.308 11.541 2.305 11.538 2.298 11.538 C 2.298 11.538 2.295 11.535 2.288 11.528 C 2.288 11.528 2.285 11.525 2.278 11.518 C 2.278 11.518 2.278 11.518 2.278 11.518 C 2.271 11.511 2.268 11.508 2.268 11.508 C 2.261 11.501 2.258 11.498 2.258 11.498 C 2.258 11.498 2.255 11.495 2.248 11.488 C 2.248 11.488 2.245 11.488 2.238 11.488 C 2.238 11.481 2.238 11.478 2.238 11.478 C 2.238 11.471 2.238 11.468 2.238 11.468 C 2.238 11.461 2.238 11.458 2.238 11.458 C 2.238 11.458 2.235 11.455 2.228 11.448 C 2.228 11.448 2.228 11.445 2.228 11.438 C 2.228 11.438 2.228 11.438 2.228 11.438 C 2.235 11.438 2.238 11.435 2.238 11.428 L 2.238 11.418 C 2.245 11.411 2.248 11.405 2.248 11.398 C 2.255 11.398 2.261 11.395 2.268 11.388 C 2.275 11.381 2.281 11.375 2.288 11.368 C 2.295 11.361 2.298 11.355 2.298 11.348 C 2.305 11.348 2.311 11.345 2.318 11.338 C 2.318 11.338 2.321 11.335 2.328 11.328 C 2.328 11.321 2.331 11.318 2.338 11.318 C 2.338 11.318 2.341 11.315 2.348 11.308 C 2.348 11.308 2.348 11.308 2.348 11.308 C 2.368 11.288 2.385 11.271 2.398 11.258 C 2.411 11.251 2.425 11.241 2.438 11.228 C 2.438 11.221 2.441 11.218 2.448 11.218 C 2.448 11.211 2.451 11.208 2.458 11.208 C 2.458 11.201 2.461 11.198 2.468 11.198 C 2.468 11.198 2.468 11.198 2.468 11.198 C 2.475 11.198 2.481 11.198 2.488 11.198 ZM 3.051 11.218 C 3.051 11.225 3.051 11.228 3.051 11.228 C 3.051 11.228 3.051 11.231 3.051 11.238 C 3.051 11.245 3.051 11.248 3.051 11.248 C 3.051 11.248 3.051 11.248 3.051 11.248 L 3.041 11.258 C 3.041 11.265 3.041 11.268 3.041 11.268 C 3.041 11.275 3.041 11.278 3.041 11.278 C 3.041 11.285 3.038 11.288 3.031 11.288 C 3.031 11.295 3.031 11.298 3.031 11.298 L 3.011 11.298 C 3.004 11.298 2.998 11.301 2.991 11.308 C 2.984 11.308 2.978 11.308 2.971 11.308 C 2.964 11.308 2.961 11.308 2.961 11.308 C 2.961 11.308 2.961 11.308 2.961 11.308 C 2.954 11.308 2.951 11.308 2.951 11.308 C 2.951 11.308 2.948 11.308 2.941 11.308 C 2.934 11.308 2.924 11.308 2.911 11.308 C 2.904 11.301 2.894 11.298 2.881 11.298 C 2.881 11.298 2.881 11.298 2.881 11.298 C 2.874 11.298 2.871 11.298 2.871 11.298 C 2.871 11.311 2.871 11.325 2.871 11.338 C 2.871 11.351 2.871 11.361 2.871 11.368 C 2.871 11.375 2.871 11.378 2.871 11.378 C 2.864 11.385 2.861 11.388 2.861 11.388 C 2.861 11.401 2.861 11.411 2.861 11.418 C 2.861 11.425 2.861 11.431 2.861 11.438 C 2.861 11.458 2.861 11.478 2.861 11.498 C 2.861 11.511 2.861 11.528 2.861 11.548 C 2.868 11.561 2.871 11.571 2.871 11.578 C 2.871 11.585 2.871 11.595 2.871 11.608 C 2.871 11.628 2.871 11.651 2.871 11.678 C 2.871 11.698 2.871 11.718 2.871 11.738 C 2.871 11.745 2.868 11.751 2.861 11.758 C 2.861 11.765 2.861 11.771 2.861 11.778 C 2.861 11.791 2.861 11.808 2.861 11.828 C 2.868 11.841 2.871 11.855 2.871 11.868 C 2.871 11.875 2.868 11.881 2.861 11.888 C 2.861 11.895 2.861 11.901 2.861 11.908 C 2.861 11.915 2.861 11.921 2.861 11.928 C 2.861 11.928 2.858 11.928 2.851 11.928 C 2.844 11.928 2.841 11.928 2.841 11.928 C 2.841 11.928 2.841 11.925 2.841 11.918 C 2.834 11.918 2.828 11.921 2.821 11.928 C 2.821 11.928 2.818 11.928 2.811 11.928 C 2.811 11.928 2.811 11.928 2.811 11.928 C 2.804 11.928 2.801 11.928 2.801 11.928 C 2.801 11.928 2.801 11.928 2.801 11.928 C 2.801 11.928 2.798 11.928 2.791 11.928 C 2.784 11.928 2.781 11.928 2.781 11.928 C 2.781 11.928 2.781 11.928 2.781 11.928 C 2.774 11.928 2.771 11.928 2.771 11.928 C 2.764 11.928 2.758 11.928 2.751 11.928 C 2.751 11.928 2.751 11.928 2.751 11.928 C 2.751 11.921 2.751 11.918 2.751 11.918 C 2.751 11.918 2.748 11.915 2.741 11.908 C 2.741 11.908 2.741 11.908 2.741 11.908 C 2.741 11.895 2.741 11.885 2.741 11.878 C 2.741 11.871 2.741 11.865 2.741 11.858 C 2.741 11.845 2.741 11.828 2.741 11.808 C 2.741 11.795 2.741 11.778 2.741 11.758 C 2.741 11.751 2.741 11.745 2.741 11.738 C 2.741 11.738 2.741 11.735 2.741 11.728 C 2.741 11.721 2.741 11.718 2.741 11.718 C 2.741 11.711 2.741 11.708 2.741 11.708 C 2.741 11.708 2.741 11.705 2.741 11.698 C 2.741 11.698 2.741 11.695 2.741 11.688 C 2.741 11.681 2.741 11.675 2.741 11.668 C 2.741 11.655 2.741 11.645 2.741 11.638 C 2.741 11.638 2.741 11.635 2.741 11.628 C 2.741 11.628 2.741 11.625 2.741 11.618 C 2.741 11.611 2.741 11.605 2.741 11.598 C 2.741 11.591 2.741 11.585 2.741 11.578 C 2.741 11.551 2.741 11.521 2.741 11.488 C 2.741 11.461 2.741 11.431 2.741 11.398 C 2.741 11.385 2.741 11.368 2.741 11.348 C 2.741 11.335 2.741 11.321 2.741 11.308 C 2.741 11.301 2.741 11.298 2.741 11.298 C 2.741 11.291 2.741 11.288 2.741 11.288 C 2.734 11.288 2.731 11.288 2.731 11.288 C 2.724 11.288 2.721 11.288 2.721 11.288 C 2.714 11.288 2.708 11.288 2.701 11.288 C 2.688 11.288 2.674 11.291 2.661 11.298 C 2.654 11.298 2.644 11.298 2.631 11.298 C 2.624 11.298 2.618 11.298 2.611 11.298 C 2.611 11.298 2.611 11.298 2.611 11.298 C 2.604 11.298 2.601 11.295 2.601 11.288 L 2.601 11.278 C 2.594 11.271 2.591 11.268 2.591 11.268 C 2.591 11.268 2.591 11.268 2.591 11.268 C 2.591 11.261 2.591 11.258 2.591 11.258 C 2.584 11.258 2.581 11.255 2.581 11.248 C 2.581 11.241 2.581 11.238 2.581 11.238 C 2.581 11.231 2.581 11.228 2.581 11.228 C 2.581 11.221 2.581 11.215 2.581 11.208 C 2.588 11.208 2.594 11.208 2.601 11.208 C 2.601 11.201 2.604 11.198 2.611 11.198 C 2.618 11.198 2.624 11.198 2.631 11.198 C 2.631 11.198 2.634 11.195 2.641 11.188 C 2.641 11.188 2.644 11.188 2.651 11.188 C 2.658 11.188 2.661 11.188 2.661 11.188 C 2.674 11.188 2.684 11.188 2.691 11.188 C 2.704 11.188 2.714 11.188 2.721 11.188 C 2.734 11.188 2.744 11.188 2.751 11.188 C 2.764 11.188 2.774 11.188 2.781 11.188 C 2.788 11.188 2.798 11.188 2.811 11.188 C 2.818 11.195 2.828 11.198 2.841 11.198 C 2.841 11.198 2.841 11.198 2.841 11.198 C 2.848 11.198 2.851 11.198 2.851 11.198 L 2.951 11.198 C 2.958 11.198 2.961 11.198 2.961 11.198 C 2.961 11.198 2.964 11.198 2.971 11.198 C 2.971 11.198 2.974 11.198 2.981 11.198 C 2.988 11.198 2.991 11.198 2.991 11.198 C 2.998 11.198 3.004 11.198 3.011 11.198 C 3.011 11.198 3.014 11.198 3.021 11.198 C 3.028 11.205 3.034 11.208 3.041 11.208 C 3.041 11.208 3.041 11.211 3.041 11.218 C 3.041 11.218 3.044 11.218 3.051 11.218 ZM 4.916 11.188 C 4.923 11.188 4.926 11.188 4.926 11.188 C 4.933 11.195 4.936 11.201 4.936 11.208 C 4.936 11.208 4.936 11.211 4.936 11.218 C 4.936 11.231 4.936 11.238 4.936 11.238 C 4.936 11.245 4.936 11.251 4.936 11.258 C 4.936 11.265 4.936 11.275 4.936 11.288 C 4.936 11.295 4.936 11.305 4.936 11.318 C 4.936 11.338 4.936 11.361 4.936 11.388 C 4.936 11.408 4.936 11.431 4.936 11.458 C 4.936 11.465 4.936 11.471 4.936 11.478 C 4.936 11.491 4.936 11.501 4.936 11.508 C 4.936 11.508 4.936 11.511 4.936 11.518 C 4.936 11.518 4.936 11.518 4.936 11.518 C 4.936 11.525 4.936 11.531 4.936 11.538 C 4.936 11.545 4.936 11.551 4.936 11.558 C 4.936 11.558 4.936 11.558 4.936 11.558 C 4.936 11.565 4.936 11.568 4.936 11.568 C 4.936 11.575 4.936 11.578 4.936 11.578 C 4.936 11.591 4.936 11.601 4.936 11.608 C 4.936 11.621 4.936 11.631 4.936 11.638 C 4.936 11.651 4.936 11.661 4.936 11.668 C 4.936 11.681 4.936 11.691 4.936 11.698 C 4.936 11.705 4.936 11.711 4.936 11.718 C 4.936 11.725 4.936 11.731 4.936 11.738 C 4.936 11.751 4.936 11.765 4.936 11.778 C 4.936 11.791 4.936 11.805 4.936 11.818 C 4.936 11.825 4.936 11.835 4.936 11.848 C 4.936 11.855 4.936 11.861 4.936 11.868 C 4.936 11.881 4.936 11.891 4.936 11.898 C 4.936 11.898 4.936 11.901 4.936 11.908 C 4.93 11.908 4.926 11.908 4.926 11.908 C 4.926 11.908 4.923 11.908 4.916 11.908 C 4.91 11.908 4.906 11.911 4.906 11.918 C 4.9 11.918 4.896 11.918 4.896 11.918 C 4.89 11.918 4.886 11.921 4.886 11.928 C 4.88 11.928 4.876 11.928 4.876 11.928 C 4.87 11.928 4.866 11.928 4.866 11.928 C 4.866 11.928 4.866 11.928 4.866 11.928 C 4.853 11.928 4.846 11.928 4.846 11.928 C 4.84 11.928 4.833 11.928 4.826 11.928 C 4.826 11.921 4.823 11.915 4.816 11.908 C 4.816 11.908 4.813 11.908 4.806 11.908 C 4.8 11.895 4.793 11.881 4.786 11.868 C 4.786 11.855 4.78 11.841 4.766 11.828 C 4.766 11.821 4.766 11.818 4.766 11.818 C 4.766 11.818 4.766 11.815 4.766 11.808 C 4.76 11.801 4.756 11.795 4.756 11.788 C 4.756 11.788 4.753 11.785 4.746 11.778 C 4.74 11.765 4.736 11.751 4.736 11.738 C 4.73 11.731 4.723 11.721 4.716 11.708 C 4.716 11.701 4.716 11.695 4.716 11.688 C 4.71 11.688 4.706 11.685 4.706 11.678 C 4.706 11.671 4.706 11.668 4.706 11.668 C 4.7 11.668 4.696 11.665 4.696 11.658 C 4.696 11.651 4.693 11.645 4.686 11.638 C 4.686 11.631 4.683 11.625 4.676 11.618 C 4.676 11.618 4.673 11.615 4.666 11.608 C 4.666 11.608 4.666 11.605 4.666 11.598 C 4.66 11.598 4.656 11.595 4.656 11.588 C 4.656 11.581 4.656 11.578 4.656 11.578 C 4.65 11.571 4.646 11.565 4.646 11.558 C 4.646 11.558 4.643 11.555 4.636 11.548 C 4.636 11.548 4.636 11.545 4.636 11.538 C 4.636 11.538 4.636 11.535 4.636 11.528 C 4.63 11.535 4.626 11.541 4.626 11.548 C 4.626 11.555 4.626 11.561 4.626 11.568 C 4.626 11.568 4.626 11.571 4.626 11.578 C 4.626 11.585 4.626 11.588 4.626 11.588 C 4.626 11.595 4.626 11.601 4.626 11.608 C 4.626 11.621 4.626 11.635 4.626 11.648 C 4.626 11.668 4.626 11.685 4.626 11.698 C 4.626 11.711 4.626 11.721 4.626 11.728 C 4.626 11.735 4.626 11.741 4.626 11.748 C 4.633 11.755 4.633 11.761 4.626 11.768 C 4.626 11.775 4.63 11.781 4.636 11.788 C 4.636 11.801 4.636 11.815 4.636 11.828 C 4.636 11.841 4.636 11.858 4.636 11.878 L 4.636 11.898 C 4.636 11.905 4.633 11.911 4.626 11.918 C 4.62 11.918 4.613 11.918 4.606 11.918 C 4.606 11.918 4.606 11.915 4.606 11.908 C 4.6 11.915 4.596 11.918 4.596 11.918 C 4.59 11.918 4.586 11.918 4.586 11.918 C 4.58 11.918 4.576 11.921 4.576 11.928 C 4.57 11.928 4.566 11.928 4.566 11.928 C 4.566 11.928 4.566 11.928 4.566 11.928 C 4.56 11.928 4.556 11.928 4.556 11.928 C 4.55 11.928 4.546 11.928 4.546 11.928 C 4.54 11.928 4.536 11.928 4.536 11.928 C 4.53 11.928 4.526 11.928 4.526 11.928 C 4.52 11.921 4.516 11.915 4.516 11.908 C 4.516 11.895 4.513 11.885 4.506 11.878 C 4.506 11.878 4.506 11.878 4.506 11.878 C 4.506 11.878 4.506 11.875 4.506 11.868 C 4.506 11.855 4.506 11.841 4.506 11.828 C 4.506 11.808 4.506 11.791 4.506 11.778 C 4.506 11.765 4.506 11.755 4.506 11.748 C 4.506 11.735 4.506 11.721 4.506 11.708 C 4.506 11.701 4.506 11.698 4.506 11.698 C 4.506 11.691 4.506 11.685 4.506 11.678 C 4.506 11.678 4.506 11.678 4.506 11.678 C 4.506 11.678 4.506 11.675 4.506 11.668 C 4.506 11.661 4.506 11.651 4.506 11.638 C 4.506 11.625 4.506 11.611 4.506 11.598 C 4.5 11.591 4.496 11.585 4.496 11.578 C 4.496 11.571 4.496 11.561 4.496 11.548 C 4.496 11.548 4.496 11.545 4.496 11.538 C 4.503 11.538 4.506 11.535 4.506 11.528 L 4.506 11.488 C 4.5 11.481 4.496 11.475 4.496 11.468 C 4.496 11.468 4.496 11.468 4.496 11.468 C 4.496 11.461 4.496 11.455 4.496 11.448 C 4.496 11.441 4.496 11.435 4.496 11.428 C 4.496 11.421 4.496 11.418 4.496 11.418 C 4.496 11.411 4.496 11.408 4.496 11.408 C 4.496 11.395 4.496 11.385 4.496 11.378 C 4.496 11.365 4.496 11.355 4.496 11.348 L 4.496 11.268 C 4.496 11.261 4.496 11.255 4.496 11.248 C 4.496 11.248 4.496 11.245 4.496 11.238 C 4.503 11.225 4.506 11.218 4.506 11.218 C 4.513 11.218 4.516 11.218 4.516 11.218 C 4.523 11.218 4.53 11.218 4.536 11.218 C 4.543 11.218 4.546 11.215 4.546 11.208 C 4.553 11.215 4.556 11.218 4.556 11.218 C 4.556 11.218 4.56 11.218 4.566 11.218 C 4.566 11.211 4.566 11.208 4.566 11.208 C 4.566 11.208 4.57 11.208 4.576 11.208 C 4.583 11.201 4.586 11.198 4.586 11.198 C 4.586 11.198 4.586 11.198 4.586 11.198 C 4.593 11.198 4.596 11.198 4.596 11.198 C 4.596 11.198 4.6 11.198 4.606 11.198 C 4.606 11.205 4.606 11.208 4.606 11.208 C 4.606 11.215 4.61 11.218 4.616 11.218 C 4.623 11.225 4.63 11.235 4.636 11.248 C 4.643 11.261 4.65 11.275 4.656 11.288 C 4.663 11.308 4.67 11.325 4.676 11.338 C 4.676 11.338 4.676 11.341 4.676 11.348 C 4.676 11.348 4.676 11.351 4.676 11.358 C 4.683 11.365 4.69 11.371 4.696 11.378 C 4.703 11.391 4.706 11.401 4.706 11.408 C 4.713 11.415 4.716 11.418 4.716 11.418 C 4.716 11.418 4.716 11.418 4.716 11.418 C 4.723 11.425 4.726 11.431 4.726 11.438 C 4.726 11.438 4.726 11.441 4.726 11.448 C 4.733 11.455 4.736 11.461 4.736 11.468 C 4.743 11.475 4.75 11.481 4.756 11.488 C 4.756 11.495 4.756 11.498 4.756 11.498 C 4.756 11.505 4.76 11.511 4.766 11.518 C 4.766 11.525 4.77 11.531 4.776 11.538 C 4.783 11.545 4.786 11.551 4.786 11.558 C 4.793 11.565 4.796 11.571 4.796 11.578 C 4.803 11.585 4.806 11.588 4.806 11.588 C 4.806 11.588 4.81 11.581 4.816 11.568 C 4.816 11.548 4.816 11.528 4.816 11.508 C 4.816 11.495 4.816 11.478 4.816 11.458 C 4.816 11.438 4.816 11.428 4.816 11.428 C 4.816 11.408 4.816 11.388 4.816 11.368 C 4.81 11.355 4.806 11.338 4.806 11.318 C 4.806 11.305 4.806 11.291 4.806 11.278 C 4.813 11.265 4.816 11.251 4.816 11.238 C 4.816 11.231 4.816 11.225 4.816 11.218 C 4.816 11.211 4.816 11.205 4.816 11.198 C 4.816 11.198 4.816 11.195 4.816 11.188 C 4.816 11.188 4.82 11.185 4.826 11.178 C 4.833 11.178 4.84 11.181 4.846 11.188 C 4.846 11.181 4.85 11.178 4.856 11.178 C 4.863 11.178 4.866 11.178 4.866 11.178 C 4.873 11.178 4.876 11.178 4.876 11.178 C 4.876 11.178 4.88 11.178 4.886 11.178 C 4.886 11.178 4.886 11.178 4.886 11.178 C 4.893 11.178 4.896 11.181 4.896 11.188 C 4.903 11.181 4.91 11.181 4.916 11.188 ZM 5.213 11.258 C 5.213 11.258 5.213 11.261 5.213 11.268 C 5.206 11.268 5.203 11.271 5.203 11.278 C 5.196 11.285 5.19 11.291 5.183 11.298 C 5.176 11.305 5.17 11.311 5.163 11.318 C 5.163 11.318 5.16 11.321 5.153 11.328 C 5.153 11.328 5.15 11.331 5.143 11.338 C 5.136 11.345 5.13 11.348 5.123 11.348 C 5.123 11.355 5.12 11.358 5.113 11.358 C 5.106 11.358 5.1 11.355 5.093 11.348 C 5.086 11.341 5.08 11.338 5.073 11.338 C 5.066 11.338 5.063 11.338 5.063 11.338 C 5.056 11.338 5.053 11.338 5.053 11.338 C 5.04 11.331 5.033 11.325 5.033 11.318 C 5.026 11.318 5.02 11.315 5.013 11.308 C 5.013 11.301 5.016 11.298 5.023 11.298 C 5.023 11.298 5.023 11.298 5.023 11.298 C 5.03 11.291 5.036 11.285 5.043 11.278 C 5.05 11.271 5.053 11.265 5.053 11.258 C 5.066 11.251 5.08 11.241 5.093 11.228 C 5.1 11.215 5.11 11.205 5.123 11.198 C 5.13 11.198 5.133 11.195 5.133 11.188 C 5.133 11.188 5.136 11.188 5.143 11.188 C 5.15 11.188 5.153 11.188 5.153 11.188 C 5.16 11.195 5.163 11.201 5.163 11.208 C 5.17 11.208 5.173 11.211 5.173 11.218 C 5.18 11.218 5.183 11.221 5.183 11.228 C 5.19 11.228 5.196 11.231 5.203 11.238 C 5.21 11.245 5.213 11.251 5.213 11.258 Z M 5.083 11.438 C 5.09 11.438 5.093 11.441 5.093 11.448 C 5.093 11.448 5.096 11.451 5.103 11.458 C 5.11 11.458 5.113 11.458 5.113 11.458 C 5.12 11.458 5.126 11.458 5.133 11.458 C 5.133 11.458 5.133 11.461 5.133 11.468 C 5.133 11.468 5.133 11.468 5.133 11.468 C 5.14 11.475 5.146 11.478 5.153 11.478 C 5.166 11.485 5.173 11.488 5.173 11.488 C 5.18 11.495 5.183 11.501 5.183 11.508 C 5.183 11.521 5.183 11.531 5.183 11.538 C 5.19 11.551 5.193 11.561 5.193 11.568 C 5.193 11.581 5.193 11.591 5.193 11.598 C 5.193 11.611 5.196 11.625 5.203 11.638 C 5.203 11.651 5.203 11.668 5.203 11.688 C 5.203 11.701 5.203 11.715 5.203 11.728 C 5.196 11.748 5.193 11.765 5.193 11.778 C 5.193 11.785 5.193 11.795 5.193 11.808 C 5.193 11.821 5.193 11.831 5.193 11.838 C 5.186 11.838 5.183 11.841 5.183 11.848 L 5.183 11.878 C 5.183 11.885 5.186 11.888 5.193 11.888 C 5.193 11.895 5.193 11.898 5.193 11.898 C 5.193 11.911 5.19 11.918 5.183 11.918 C 5.183 11.918 5.18 11.918 5.173 11.918 C 5.173 11.918 5.173 11.918 5.173 11.918 C 5.166 11.918 5.16 11.918 5.153 11.918 C 5.146 11.918 5.14 11.918 5.133 11.918 C 5.126 11.918 5.12 11.918 5.113 11.918 C 5.1 11.918 5.09 11.918 5.083 11.918 C 5.076 11.918 5.073 11.911 5.073 11.898 C 5.073 11.891 5.073 11.885 5.073 11.878 C 5.073 11.878 5.073 11.878 5.073 11.878 C 5.073 11.878 5.073 11.875 5.073 11.868 C 5.073 11.861 5.073 11.858 5.073 11.858 C 5.073 11.851 5.073 11.848 5.073 11.848 C 5.073 11.841 5.073 11.831 5.073 11.818 C 5.073 11.811 5.073 11.801 5.073 11.788 C 5.073 11.788 5.073 11.785 5.073 11.778 C 5.073 11.778 5.073 11.778 5.073 11.778 C 5.073 11.771 5.073 11.768 5.073 11.768 C 5.073 11.768 5.073 11.765 5.073 11.758 C 5.073 11.758 5.073 11.755 5.073 11.748 C 5.073 11.748 5.073 11.748 5.073 11.748 C 5.073 11.741 5.073 11.735 5.073 11.728 C 5.073 11.721 5.073 11.718 5.073 11.718 C 5.073 11.705 5.073 11.691 5.073 11.678 C 5.073 11.671 5.073 11.661 5.073 11.648 C 5.073 11.648 5.073 11.648 5.073 11.648 C 5.073 11.641 5.073 11.638 5.073 11.638 C 5.073 11.638 5.07 11.638 5.063 11.638 C 5.063 11.638 5.063 11.638 5.063 11.638 C 5.063 11.605 5.063 11.575 5.063 11.548 C 5.056 11.521 5.053 11.491 5.053 11.458 C 5.053 11.458 5.053 11.455 5.053 11.448 C 5.053 11.448 5.056 11.448 5.063 11.448 C 5.063 11.448 5.063 11.445 5.063 11.438 C 5.07 11.438 5.073 11.438 5.073 11.438 C 5.073 11.438 5.076 11.438 5.083 11.438 ZM 5.817 11.548 L 5.827 11.548 C 5.827 11.548 5.83 11.551 5.837 11.558 C 5.837 11.565 5.837 11.568 5.837 11.568 C 5.83 11.581 5.827 11.591 5.827 11.598 C 5.827 11.605 5.823 11.611 5.817 11.618 C 5.817 11.618 5.813 11.621 5.807 11.628 C 5.8 11.635 5.797 11.641 5.797 11.648 C 5.79 11.655 5.783 11.661 5.777 11.668 C 5.777 11.675 5.773 11.681 5.767 11.688 C 5.767 11.695 5.767 11.698 5.767 11.698 C 5.76 11.705 5.757 11.711 5.757 11.718 C 5.75 11.725 5.743 11.735 5.737 11.748 C 5.73 11.755 5.723 11.765 5.717 11.778 C 5.717 11.778 5.717 11.781 5.717 11.788 C 5.71 11.788 5.707 11.791 5.707 11.798 C 5.693 11.811 5.683 11.825 5.677 11.838 C 5.663 11.851 5.653 11.865 5.647 11.878 C 5.653 11.885 5.657 11.895 5.657 11.908 C 5.657 11.915 5.657 11.918 5.657 11.918 C 5.65 11.918 5.647 11.918 5.647 11.918 C 5.64 11.925 5.633 11.928 5.627 11.928 C 5.62 11.928 5.617 11.928 5.617 11.928 C 5.61 11.928 5.6 11.928 5.587 11.928 C 5.58 11.928 5.573 11.928 5.567 11.928 C 5.567 11.928 5.567 11.928 5.567 11.928 C 5.56 11.928 5.557 11.928 5.557 11.928 C 5.55 11.928 5.547 11.928 5.547 11.928 C 5.547 11.928 5.543 11.928 5.537 11.928 C 5.53 11.921 5.527 11.915 5.527 11.908 C 5.52 11.901 5.513 11.895 5.507 11.888 C 5.507 11.881 5.503 11.878 5.497 11.878 C 5.49 11.871 5.487 11.865 5.487 11.858 C 5.473 11.845 5.463 11.831 5.457 11.818 C 5.443 11.805 5.43 11.791 5.417 11.778 C 5.417 11.771 5.413 11.765 5.407 11.758 C 5.4 11.751 5.393 11.745 5.387 11.738 C 5.38 11.731 5.373 11.725 5.367 11.718 C 5.367 11.711 5.363 11.705 5.357 11.698 C 5.35 11.691 5.343 11.681 5.337 11.668 C 5.33 11.661 5.323 11.651 5.317 11.638 C 5.31 11.631 5.303 11.621 5.297 11.608 C 5.283 11.601 5.277 11.595 5.277 11.588 C 5.277 11.588 5.273 11.588 5.267 11.588 C 5.267 11.581 5.263 11.578 5.257 11.578 C 5.257 11.571 5.257 11.568 5.257 11.568 C 5.257 11.561 5.257 11.558 5.257 11.558 C 5.257 11.551 5.257 11.548 5.257 11.548 C 5.257 11.541 5.257 11.538 5.257 11.538 C 5.257 11.538 5.257 11.535 5.257 11.528 C 5.263 11.521 5.27 11.515 5.277 11.508 C 5.283 11.501 5.287 11.495 5.287 11.488 C 5.287 11.481 5.287 11.478 5.287 11.478 C 5.287 11.478 5.287 11.475 5.287 11.468 C 5.293 11.461 5.297 11.458 5.297 11.458 C 5.303 11.451 5.307 11.448 5.307 11.448 C 5.313 11.441 5.317 11.435 5.317 11.428 C 5.323 11.421 5.327 11.415 5.327 11.408 C 5.34 11.395 5.35 11.381 5.357 11.368 C 5.37 11.355 5.38 11.341 5.387 11.328 C 5.4 11.315 5.41 11.301 5.417 11.288 C 5.423 11.275 5.433 11.261 5.447 11.248 C 5.447 11.241 5.45 11.235 5.457 11.228 C 5.463 11.221 5.47 11.211 5.477 11.198 C 5.483 11.191 5.49 11.185 5.497 11.178 C 5.503 11.171 5.51 11.168 5.517 11.168 C 5.523 11.168 5.53 11.168 5.537 11.168 C 5.537 11.175 5.54 11.178 5.547 11.178 C 5.56 11.178 5.567 11.181 5.567 11.188 C 5.573 11.188 5.577 11.191 5.577 11.198 C 5.583 11.198 5.59 11.198 5.597 11.198 C 5.603 11.205 5.61 11.211 5.617 11.218 C 5.617 11.225 5.613 11.231 5.607 11.238 C 5.6 11.245 5.597 11.251 5.597 11.258 C 5.59 11.258 5.587 11.261 5.587 11.268 C 5.58 11.268 5.577 11.271 5.577 11.278 C 5.57 11.285 5.563 11.295 5.557 11.308 C 5.55 11.321 5.54 11.331 5.527 11.338 C 5.527 11.345 5.523 11.348 5.517 11.348 C 5.517 11.348 5.513 11.351 5.507 11.358 C 5.507 11.358 5.507 11.361 5.507 11.368 C 5.507 11.368 5.507 11.368 5.507 11.368 C 5.5 11.381 5.49 11.395 5.477 11.408 C 5.47 11.421 5.463 11.435 5.457 11.448 C 5.45 11.448 5.447 11.451 5.447 11.458 C 5.44 11.465 5.437 11.471 5.437 11.478 C 5.437 11.478 5.433 11.481 5.427 11.488 C 5.42 11.495 5.413 11.501 5.407 11.508 C 5.407 11.515 5.403 11.525 5.397 11.538 C 5.397 11.545 5.397 11.548 5.397 11.548 C 5.397 11.555 5.4 11.561 5.407 11.568 C 5.413 11.581 5.423 11.591 5.437 11.598 C 5.443 11.611 5.45 11.625 5.457 11.638 C 5.47 11.645 5.477 11.648 5.477 11.648 C 5.477 11.655 5.48 11.661 5.487 11.668 C 5.5 11.681 5.51 11.695 5.517 11.708 C 5.53 11.721 5.54 11.735 5.547 11.748 C 5.56 11.755 5.57 11.761 5.577 11.768 L 5.577 11.778 C 5.583 11.778 5.587 11.775 5.587 11.768 C 5.593 11.761 5.6 11.751 5.607 11.738 C 5.613 11.731 5.62 11.721 5.627 11.708 C 5.633 11.701 5.637 11.698 5.637 11.698 C 5.637 11.691 5.64 11.685 5.647 11.678 C 5.647 11.671 5.65 11.661 5.657 11.648 C 5.663 11.641 5.67 11.635 5.677 11.628 C 5.677 11.615 5.677 11.608 5.677 11.608 L 5.667 11.608 C 5.66 11.608 5.65 11.608 5.637 11.608 C 5.63 11.608 5.62 11.611 5.607 11.618 C 5.6 11.618 5.597 11.615 5.597 11.608 C 5.59 11.608 5.587 11.608 5.587 11.608 C 5.58 11.601 5.577 11.595 5.577 11.588 C 5.583 11.588 5.583 11.588 5.577 11.588 C 5.577 11.581 5.577 11.578 5.577 11.578 C 5.577 11.578 5.577 11.578 5.577 11.578 C 5.577 11.571 5.577 11.565 5.577 11.558 C 5.577 11.558 5.573 11.555 5.567 11.548 C 5.567 11.548 5.567 11.548 5.567 11.548 C 5.573 11.541 5.573 11.538 5.567 11.538 C 5.573 11.525 5.573 11.515 5.567 11.508 C 5.567 11.501 5.567 11.498 5.567 11.498 C 5.573 11.491 5.577 11.485 5.577 11.478 C 5.583 11.485 5.59 11.485 5.597 11.478 C 5.597 11.478 5.6 11.478 5.607 11.478 C 5.613 11.478 5.62 11.475 5.627 11.468 C 5.633 11.468 5.64 11.468 5.647 11.468 C 5.653 11.468 5.66 11.468 5.667 11.468 C 5.673 11.468 5.677 11.468 5.677 11.468 C 5.677 11.468 5.68 11.468 5.687 11.468 C 5.687 11.468 5.69 11.468 5.697 11.468 C 5.703 11.468 5.707 11.468 5.707 11.468 C 5.72 11.461 5.73 11.458 5.737 11.458 C 5.75 11.458 5.76 11.458 5.767 11.458 C 5.773 11.458 5.777 11.458 5.777 11.458 C 5.783 11.465 5.787 11.468 5.787 11.468 C 5.793 11.468 5.797 11.468 5.797 11.468 C 5.797 11.468 5.797 11.471 5.797 11.478 C 5.803 11.478 5.807 11.481 5.807 11.488 C 5.807 11.488 5.807 11.491 5.807 11.498 C 5.807 11.498 5.807 11.501 5.807 11.508 C 5.807 11.515 5.803 11.521 5.797 11.528 C 5.803 11.528 5.81 11.531 5.817 11.538 C 5.817 11.545 5.817 11.548 5.817 11.548 ZM 6.312 11.188 L 6.322 11.198 C 6.328 11.191 6.332 11.188 6.332 11.188 C 6.338 11.195 6.342 11.198 6.342 11.198 C 6.348 11.198 6.352 11.201 6.352 11.208 C 6.352 11.221 6.352 11.235 6.352 11.248 C 6.352 11.261 6.352 11.275 6.352 11.288 C 6.352 11.308 6.352 11.331 6.352 11.358 C 6.352 11.385 6.352 11.411 6.352 11.438 C 6.352 11.438 6.352 11.441 6.352 11.448 C 6.352 11.448 6.352 11.448 6.352 11.448 C 6.352 11.475 6.352 11.498 6.352 11.518 C 6.358 11.545 6.362 11.568 6.362 11.588 L 6.362 11.718 C 6.362 11.751 6.362 11.781 6.362 11.808 C 6.362 11.835 6.362 11.861 6.362 11.888 C 6.362 11.888 6.362 11.891 6.362 11.898 C 6.355 11.905 6.352 11.908 6.352 11.908 C 6.345 11.908 6.338 11.908 6.332 11.908 C 6.332 11.908 6.332 11.908 6.332 11.908 C 6.332 11.915 6.328 11.918 6.322 11.918 C 6.322 11.918 6.318 11.918 6.312 11.918 C 6.312 11.918 6.308 11.918 6.302 11.918 C 6.295 11.918 6.292 11.918 6.292 11.918 C 6.285 11.918 6.282 11.918 6.282 11.918 C 6.275 11.918 6.272 11.921 6.272 11.928 C 6.272 11.928 6.268 11.928 6.262 11.928 C 6.262 11.928 6.262 11.928 6.262 11.928 C 6.255 11.928 6.252 11.928 6.252 11.928 C 6.245 11.928 6.242 11.925 6.242 11.918 C 6.242 11.911 6.242 11.908 6.242 11.908 C 6.242 11.908 6.242 11.905 6.242 11.898 C 6.242 11.891 6.242 11.888 6.242 11.888 C 6.242 11.861 6.242 11.835 6.242 11.808 C 6.235 11.781 6.232 11.758 6.232 11.738 C 6.232 11.725 6.232 11.711 6.232 11.698 C 6.232 11.691 6.232 11.681 6.232 11.668 C 6.232 11.661 6.232 11.655 6.232 11.648 C 6.232 11.641 6.232 11.638 6.232 11.638 C 6.225 11.631 6.222 11.631 6.222 11.638 C 6.222 11.638 6.218 11.638 6.212 11.638 C 6.198 11.645 6.188 11.648 6.182 11.648 C 6.182 11.648 6.178 11.651 6.172 11.658 C 6.172 11.658 6.172 11.658 6.172 11.658 C 6.165 11.658 6.158 11.658 6.152 11.658 C 6.145 11.658 6.138 11.661 6.132 11.668 C 6.132 11.668 6.132 11.668 6.132 11.668 C 6.125 11.668 6.122 11.668 6.122 11.668 C 6.108 11.675 6.098 11.678 6.092 11.678 C 6.085 11.685 6.078 11.688 6.072 11.688 C 6.065 11.688 6.058 11.691 6.052 11.698 C 6.052 11.698 6.048 11.698 6.042 11.698 C 6.035 11.731 6.032 11.761 6.032 11.788 C 6.032 11.815 6.032 11.841 6.032 11.868 C 6.032 11.875 6.032 11.881 6.032 11.888 C 6.032 11.888 6.032 11.891 6.032 11.898 C 6.025 11.898 6.018 11.898 6.012 11.898 C 6.012 11.898 6.012 11.895 6.012 11.888 C 6.005 11.895 6.002 11.898 6.002 11.898 C 6.002 11.898 6.002 11.898 6.002 11.898 C 5.995 11.898 5.988 11.901 5.982 11.908 C 5.982 11.908 5.982 11.908 5.982 11.908 C 5.975 11.908 5.972 11.908 5.972 11.908 C 5.972 11.908 5.968 11.908 5.962 11.908 C 5.955 11.908 5.952 11.908 5.952 11.908 C 5.952 11.908 5.952 11.908 5.952 11.908 C 5.952 11.908 5.952 11.908 5.952 11.908 C 5.945 11.915 5.942 11.918 5.942 11.918 C 5.942 11.918 5.938 11.918 5.932 11.918 C 5.932 11.918 5.928 11.918 5.922 11.918 C 5.922 11.918 5.922 11.915 5.922 11.908 C 5.922 11.908 5.918 11.905 5.912 11.898 C 5.912 11.891 5.912 11.881 5.912 11.868 C 5.912 11.861 5.912 11.855 5.912 11.848 C 5.912 11.828 5.912 11.811 5.912 11.798 C 5.912 11.791 5.912 11.781 5.912 11.768 C 5.912 11.755 5.912 11.745 5.912 11.738 C 5.912 11.725 5.908 11.715 5.902 11.708 C 5.902 11.688 5.902 11.668 5.902 11.648 C 5.902 11.628 5.902 11.608 5.902 11.588 C 5.902 11.575 5.902 11.558 5.902 11.538 C 5.902 11.525 5.902 11.508 5.902 11.488 C 5.902 11.481 5.902 11.471 5.902 11.458 C 5.908 11.451 5.912 11.441 5.912 11.428 C 5.912 11.421 5.908 11.411 5.902 11.398 C 5.902 11.391 5.902 11.385 5.902 11.378 C 5.902 11.365 5.905 11.355 5.912 11.348 C 5.912 11.335 5.912 11.325 5.912 11.318 C 5.912 11.305 5.912 11.295 5.912 11.288 C 5.905 11.275 5.902 11.261 5.902 11.248 C 5.902 11.248 5.905 11.245 5.912 11.238 C 5.912 11.238 5.912 11.238 5.912 11.238 C 5.912 11.225 5.912 11.218 5.912 11.218 C 5.912 11.218 5.912 11.218 5.912 11.218 C 5.918 11.211 5.922 11.208 5.922 11.208 C 5.928 11.208 5.932 11.208 5.932 11.208 C 5.938 11.208 5.945 11.208 5.952 11.208 C 5.958 11.208 5.962 11.205 5.962 11.198 C 5.968 11.198 5.972 11.198 5.972 11.198 C 5.978 11.198 5.982 11.198 5.982 11.198 C 5.988 11.198 5.992 11.198 5.992 11.198 C 5.992 11.198 5.992 11.198 5.992 11.198 C 5.998 11.198 6.005 11.198 6.012 11.198 C 6.018 11.198 6.022 11.198 6.022 11.198 C 6.028 11.231 6.032 11.268 6.032 11.308 C 6.032 11.341 6.032 11.375 6.032 11.408 C 6.032 11.421 6.032 11.431 6.032 11.438 C 6.032 11.451 6.032 11.461 6.032 11.468 C 6.032 11.475 6.032 11.478 6.032 11.478 C 6.032 11.485 6.032 11.488 6.032 11.488 C 6.032 11.501 6.032 11.515 6.032 11.528 C 6.032 11.535 6.032 11.545 6.032 11.558 C 6.038 11.565 6.045 11.568 6.052 11.568 C 6.052 11.561 6.055 11.558 6.062 11.558 C 6.068 11.558 6.075 11.555 6.082 11.548 C 6.088 11.548 6.095 11.548 6.102 11.548 C 6.102 11.541 6.105 11.538 6.112 11.538 C 6.118 11.538 6.125 11.538 6.132 11.538 C 6.152 11.531 6.168 11.525 6.182 11.518 C 6.202 11.505 6.218 11.498 6.232 11.498 C 6.232 11.458 6.232 11.421 6.232 11.388 C 6.232 11.355 6.232 11.318 6.232 11.278 C 6.232 11.271 6.232 11.261 6.232 11.248 C 6.232 11.241 6.232 11.231 6.232 11.218 C 6.232 11.218 6.232 11.218 6.232 11.218 C 6.232 11.211 6.232 11.208 6.232 11.208 C 6.238 11.201 6.242 11.198 6.242 11.198 C 6.248 11.198 6.252 11.198 6.252 11.198 C 6.252 11.198 6.252 11.198 6.252 11.198 C 6.252 11.198 6.255 11.198 6.262 11.198 C 6.262 11.198 6.265 11.198 6.272 11.198 C 6.272 11.198 6.272 11.198 6.272 11.198 C 6.272 11.191 6.275 11.188 6.282 11.188 C 6.288 11.188 6.295 11.188 6.302 11.188 L 6.312 11.188 ZM 6.882 11.218 C 6.882 11.225 6.882 11.228 6.882 11.228 C 6.882 11.228 6.882 11.231 6.882 11.238 C 6.882 11.245 6.882 11.248 6.882 11.248 C 6.882 11.248 6.882 11.248 6.882 11.248 L 6.872 11.258 C 6.872 11.265 6.872 11.268 6.872 11.268 C 6.872 11.275 6.872 11.278 6.872 11.278 C 6.872 11.285 6.869 11.288 6.862 11.288 C 6.862 11.295 6.862 11.298 6.862 11.298 L 6.842 11.298 C 6.835 11.298 6.829 11.301 6.822 11.308 C 6.815 11.308 6.809 11.308 6.802 11.308 C 6.795 11.308 6.792 11.308 6.792 11.308 C 6.792 11.308 6.792 11.308 6.792 11.308 C 6.785 11.308 6.782 11.308 6.782 11.308 C 6.782 11.308 6.779 11.308 6.772 11.308 C 6.765 11.308 6.755 11.308 6.742 11.308 C 6.735 11.301 6.725 11.298 6.712 11.298 C 6.712 11.298 6.712 11.298 6.712 11.298 C 6.705 11.298 6.702 11.298 6.702 11.298 C 6.702 11.311 6.702 11.325 6.702 11.338 C 6.702 11.351 6.702 11.361 6.702 11.368 C 6.702 11.375 6.702 11.378 6.702 11.378 C 6.695 11.385 6.692 11.388 6.692 11.388 C 6.692 11.401 6.692 11.411 6.692 11.418 C 6.692 11.425 6.692 11.431 6.692 11.438 C 6.692 11.458 6.692 11.478 6.692 11.498 C 6.692 11.511 6.692 11.528 6.692 11.548 C 6.699 11.561 6.702 11.571 6.702 11.578 C 6.702 11.585 6.702 11.595 6.702 11.608 C 6.702 11.628 6.702 11.651 6.702 11.678 C 6.702 11.698 6.702 11.718 6.702 11.738 C 6.702 11.745 6.699 11.751 6.692 11.758 C 6.692 11.765 6.692 11.771 6.692 11.778 C 6.692 11.791 6.692 11.808 6.692 11.828 C 6.699 11.841 6.702 11.855 6.702 11.868 C 6.702 11.875 6.699 11.881 6.692 11.888 C 6.692 11.895 6.692 11.901 6.692 11.908 C 6.692 11.915 6.692 11.921 6.692 11.928 C 6.692 11.928 6.689 11.928 6.682 11.928 C 6.675 11.928 6.672 11.928 6.672 11.928 C 6.672 11.928 6.672 11.925 6.672 11.918 C 6.665 11.918 6.659 11.921 6.652 11.928 C 6.652 11.928 6.649 11.928 6.642 11.928 C 6.642 11.928 6.642 11.928 6.642 11.928 C 6.635 11.928 6.632 11.928 6.632 11.928 C 6.632 11.928 6.632 11.928 6.632 11.928 C 6.632 11.928 6.629 11.928 6.622 11.928 C 6.615 11.928 6.612 11.928 6.612 11.928 C 6.612 11.928 6.612 11.928 6.612 11.928 C 6.605 11.928 6.602 11.928 6.602 11.928 C 6.595 11.928 6.589 11.928 6.582 11.928 C 6.582 11.928 6.582 11.928 6.582 11.928 C 6.582 11.921 6.582 11.918 6.582 11.918 C 6.582 11.918 6.579 11.915 6.572 11.908 C 6.572 11.908 6.572 11.908 6.572 11.908 C 6.572 11.895 6.572 11.885 6.572 11.878 C 6.572 11.871 6.572 11.865 6.572 11.858 C 6.572 11.845 6.572 11.828 6.572 11.808 C 6.572 11.795 6.572 11.778 6.572 11.758 C 6.572 11.751 6.572 11.745 6.572 11.738 C 6.572 11.738 6.572 11.735 6.572 11.728 C 6.572 11.721 6.572 11.718 6.572 11.718 C 6.572 11.711 6.572 11.708 6.572 11.708 C 6.572 11.708 6.572 11.705 6.572 11.698 C 6.572 11.698 6.572 11.695 6.572 11.688 C 6.572 11.681 6.572 11.675 6.572 11.668 C 6.572 11.655 6.572 11.645 6.572 11.638 C 6.572 11.638 6.572 11.635 6.572 11.628 C 6.572 11.628 6.572 11.625 6.572 11.618 C 6.572 11.611 6.572 11.605 6.572 11.598 C 6.572 11.591 6.572 11.585 6.572 11.578 C 6.572 11.551 6.572 11.521 6.572 11.488 C 6.572 11.461 6.572 11.431 6.572 11.398 C 6.572 11.385 6.572 11.368 6.572 11.348 C 6.572 11.335 6.572 11.321 6.572 11.308 C 6.572 11.301 6.572 11.298 6.572 11.298 C 6.572 11.291 6.572 11.288 6.572 11.288 C 6.565 11.288 6.562 11.288 6.562 11.288 C 6.555 11.288 6.552 11.288 6.552 11.288 C 6.545 11.288 6.539 11.288 6.532 11.288 C 6.519 11.288 6.505 11.291 6.492 11.298 C 6.485 11.298 6.475 11.298 6.462 11.298 C 6.455 11.298 6.449 11.298 6.442 11.298 C 6.442 11.298 6.442 11.298 6.442 11.298 C 6.435 11.298 6.432 11.295 6.432 11.288 L 6.432 11.278 C 6.425 11.271 6.422 11.268 6.422 11.268 C 6.422 11.268 6.422 11.268 6.422 11.268 C 6.422 11.261 6.422 11.258 6.422 11.258 C 6.415 11.258 6.412 11.255 6.412 11.248 C 6.412 11.241 6.412 11.238 6.412 11.238 C 6.412 11.231 6.412 11.228 6.412 11.228 C 6.412 11.221 6.412 11.215 6.412 11.208 C 6.419 11.208 6.425 11.208 6.432 11.208 C 6.432 11.201 6.435 11.198 6.442 11.198 C 6.449 11.198 6.455 11.198 6.462 11.198 C 6.462 11.198 6.465 11.195 6.472 11.188 C 6.472 11.188 6.475 11.188 6.482 11.188 C 6.489 11.188 6.492 11.188 6.492 11.188 C 6.505 11.188 6.515 11.188 6.522 11.188 C 6.535 11.188 6.545 11.188 6.552 11.188 C 6.565 11.188 6.575 11.188 6.582 11.188 C 6.595 11.188 6.605 11.188 6.612 11.188 C 6.619 11.188 6.629 11.188 6.642 11.188 C 6.649 11.195 6.659 11.198 6.672 11.198 C 6.672 11.198 6.672 11.198 6.672 11.198 C 6.679 11.198 6.682 11.198 6.682 11.198 L 6.782 11.198 C 6.789 11.198 6.792 11.198 6.792 11.198 C 6.792 11.198 6.795 11.198 6.802 11.198 C 6.802 11.198 6.805 11.198 6.812 11.198 C 6.819 11.198 6.822 11.198 6.822 11.198 C 6.829 11.198 6.835 11.198 6.842 11.198 C 6.842 11.198 6.845 11.198 6.852 11.198 C 6.859 11.205 6.865 11.208 6.872 11.208 C 6.872 11.208 6.872 11.211 6.872 11.218 C 6.872 11.218 6.875 11.218 6.882 11.218 ZM 8.408 11.448 C 8.401 11.461 8.391 11.471 8.378 11.478 C 8.371 11.491 8.361 11.505 8.348 11.518 C 8.341 11.525 8.338 11.531 8.338 11.538 C 8.331 11.545 8.325 11.551 8.318 11.558 C 8.311 11.565 8.305 11.571 8.298 11.578 C 8.298 11.585 8.295 11.588 8.288 11.588 C 8.281 11.595 8.278 11.598 8.278 11.598 C 8.271 11.605 8.268 11.608 8.268 11.608 C 8.281 11.628 8.295 11.648 8.308 11.668 C 8.321 11.681 8.335 11.698 8.348 11.718 C 8.355 11.725 8.361 11.731 8.368 11.738 C 8.375 11.745 8.381 11.755 8.388 11.768 C 8.388 11.775 8.391 11.781 8.398 11.788 C 8.405 11.795 8.408 11.798 8.408 11.798 C 8.415 11.805 8.418 11.811 8.418 11.818 C 8.425 11.825 8.431 11.831 8.438 11.838 C 8.438 11.838 8.438 11.841 8.438 11.848 C 8.445 11.848 8.448 11.848 8.448 11.848 C 8.448 11.855 8.448 11.858 8.448 11.858 C 8.448 11.865 8.448 11.868 8.448 11.868 C 8.448 11.875 8.445 11.878 8.438 11.878 C 8.431 11.885 8.428 11.888 8.428 11.888 C 8.421 11.888 8.415 11.891 8.408 11.898 C 8.401 11.898 8.395 11.898 8.388 11.898 C 8.388 11.905 8.385 11.908 8.378 11.908 C 8.378 11.915 8.378 11.918 8.378 11.918 C 8.371 11.918 8.365 11.918 8.358 11.918 C 8.358 11.925 8.355 11.928 8.348 11.928 C 8.341 11.921 8.335 11.918 8.328 11.918 C 8.328 11.911 8.325 11.905 8.318 11.898 C 8.318 11.898 8.315 11.895 8.308 11.888 C 8.308 11.888 8.308 11.888 8.308 11.888 C 8.295 11.875 8.285 11.861 8.278 11.848 C 8.265 11.835 8.255 11.821 8.248 11.808 C 8.241 11.801 8.235 11.795 8.228 11.788 C 8.221 11.781 8.218 11.775 8.218 11.768 C 8.211 11.761 8.208 11.758 8.208 11.758 C 8.201 11.751 8.198 11.745 8.198 11.738 C 8.191 11.738 8.185 11.735 8.178 11.728 C 8.178 11.721 8.175 11.718 8.168 11.718 C 8.161 11.718 8.158 11.721 8.158 11.728 C 8.151 11.735 8.145 11.738 8.138 11.738 C 8.131 11.745 8.128 11.751 8.128 11.758 C 8.121 11.758 8.115 11.761 8.108 11.768 C 8.108 11.781 8.108 11.795 8.108 11.808 C 8.108 11.821 8.108 11.835 8.108 11.848 C 8.108 11.861 8.108 11.875 8.108 11.888 C 8.108 11.895 8.105 11.905 8.098 11.918 C 8.098 11.918 8.098 11.915 8.098 11.908 C 8.091 11.901 8.088 11.898 8.088 11.898 C 8.081 11.898 8.078 11.901 8.078 11.908 C 8.078 11.908 8.075 11.908 8.068 11.908 C 8.068 11.908 8.065 11.911 8.058 11.918 C 8.051 11.918 8.048 11.918 8.048 11.918 C 8.041 11.918 8.038 11.918 8.038 11.918 C 8.031 11.918 8.028 11.918 8.028 11.918 C 8.021 11.918 8.015 11.921 8.008 11.928 C 8.001 11.928 7.998 11.928 7.998 11.928 C 7.998 11.921 7.998 11.915 7.998 11.908 C 7.991 11.908 7.988 11.905 7.988 11.898 C 7.988 11.891 7.988 11.888 7.988 11.888 C 7.988 11.881 7.985 11.878 7.978 11.878 C 7.985 11.878 7.988 11.875 7.988 11.868 C 7.988 11.868 7.988 11.868 7.988 11.868 C 7.988 11.855 7.985 11.841 7.978 11.828 C 7.978 11.821 7.981 11.811 7.988 11.798 C 7.981 11.798 7.978 11.795 7.978 11.788 C 7.978 11.788 7.978 11.785 7.978 11.778 C 7.978 11.778 7.978 11.775 7.978 11.768 C 7.978 11.768 7.978 11.768 7.978 11.768 C 7.978 11.761 7.978 11.751 7.978 11.738 C 7.978 11.731 7.978 11.721 7.978 11.708 C 7.978 11.708 7.978 11.705 7.978 11.698 C 7.978 11.691 7.978 11.688 7.978 11.688 C 7.978 11.675 7.978 11.661 7.978 11.648 C 7.978 11.641 7.978 11.631 7.978 11.618 C 7.978 11.611 7.978 11.608 7.978 11.608 C 7.978 11.601 7.978 11.595 7.978 11.588 C 7.978 11.588 7.978 11.585 7.978 11.578 C 7.978 11.578 7.978 11.575 7.978 11.568 C 7.978 11.568 7.978 11.568 7.978 11.568 C 7.978 11.555 7.978 11.545 7.978 11.538 C 7.985 11.531 7.988 11.525 7.988 11.518 C 7.988 11.511 7.988 11.505 7.988 11.498 C 7.988 11.491 7.988 11.485 7.988 11.478 C 7.988 11.471 7.988 11.465 7.988 11.458 C 7.988 11.451 7.988 11.448 7.988 11.448 C 7.988 11.441 7.988 11.435 7.988 11.428 C 7.988 11.421 7.988 11.415 7.988 11.408 C 7.988 11.395 7.988 11.381 7.988 11.368 C 7.988 11.355 7.988 11.341 7.988 11.328 C 7.988 11.321 7.988 11.318 7.988 11.318 C 7.988 11.311 7.988 11.308 7.988 11.308 C 7.981 11.295 7.978 11.281 7.978 11.268 C 7.978 11.255 7.978 11.241 7.978 11.228 C 7.978 11.228 7.978 11.225 7.978 11.218 C 7.978 11.218 7.978 11.218 7.978 11.218 C 7.978 11.211 7.978 11.208 7.978 11.208 C 7.978 11.201 7.978 11.198 7.978 11.198 C 7.978 11.198 7.978 11.195 7.978 11.188 C 7.985 11.188 7.988 11.188 7.988 11.188 C 7.988 11.188 7.991 11.188 7.998 11.188 C 8.005 11.188 8.008 11.188 8.008 11.188 C 8.015 11.188 8.018 11.188 8.018 11.188 C 8.025 11.188 8.028 11.188 8.028 11.188 C 8.035 11.188 8.041 11.188 8.048 11.188 C 8.048 11.188 8.048 11.188 8.048 11.188 C 8.048 11.181 8.051 11.178 8.058 11.178 C 8.065 11.178 8.071 11.178 8.078 11.178 C 8.078 11.178 8.081 11.178 8.088 11.178 C 8.088 11.178 8.088 11.181 8.088 11.188 C 8.088 11.188 8.091 11.188 8.098 11.188 C 8.111 11.195 8.121 11.205 8.128 11.218 C 8.135 11.225 8.145 11.231 8.158 11.238 C 8.158 11.238 8.161 11.238 8.168 11.238 C 8.168 11.245 8.171 11.248 8.178 11.248 C 8.178 11.248 8.181 11.251 8.188 11.258 C 8.195 11.265 8.201 11.268 8.208 11.268 C 8.215 11.275 8.218 11.278 8.218 11.278 C 8.218 11.278 8.221 11.278 8.228 11.278 C 8.241 11.285 8.251 11.291 8.258 11.298 C 8.271 11.305 8.285 11.315 8.298 11.328 C 8.305 11.328 8.311 11.328 8.318 11.328 C 8.325 11.335 8.331 11.338 8.338 11.338 C 8.345 11.345 8.351 11.348 8.358 11.348 C 8.365 11.355 8.368 11.358 8.368 11.358 C 8.375 11.365 8.381 11.371 8.388 11.378 C 8.395 11.378 8.401 11.381 8.408 11.388 L 8.408 11.408 C 8.408 11.415 8.408 11.421 8.408 11.428 C 8.408 11.428 8.408 11.431 8.408 11.438 C 8.408 11.438 8.408 11.441 8.408 11.448 Z M 8.268 11.418 C 8.261 11.418 8.255 11.415 8.248 11.408 C 8.241 11.408 8.235 11.405 8.228 11.398 C 8.228 11.398 8.221 11.395 8.208 11.388 C 8.195 11.381 8.181 11.375 8.168 11.368 C 8.161 11.361 8.151 11.358 8.138 11.358 C 8.131 11.351 8.125 11.348 8.118 11.348 C 8.118 11.348 8.118 11.351 8.118 11.358 C 8.118 11.371 8.118 11.381 8.118 11.388 C 8.118 11.395 8.118 11.405 8.118 11.418 C 8.118 11.425 8.118 11.428 8.118 11.428 C 8.118 11.441 8.118 11.455 8.118 11.468 C 8.118 11.481 8.118 11.491 8.118 11.498 C 8.111 11.505 8.108 11.508 8.108 11.508 C 8.108 11.508 8.108 11.508 8.108 11.508 C 8.108 11.521 8.108 11.535 8.108 11.548 C 8.108 11.561 8.108 11.575 8.108 11.588 C 8.108 11.588 8.108 11.591 8.108 11.598 C 8.108 11.605 8.108 11.608 8.108 11.608 C 8.115 11.608 8.118 11.608 8.118 11.608 C 8.118 11.608 8.118 11.608 8.118 11.608 C 8.131 11.595 8.141 11.585 8.148 11.578 C 8.155 11.571 8.165 11.561 8.178 11.548 C 8.178 11.548 8.181 11.545 8.188 11.538 C 8.188 11.531 8.191 11.528 8.198 11.528 C 8.205 11.521 8.208 11.518 8.208 11.518 C 8.208 11.511 8.211 11.508 8.218 11.508 C 8.225 11.495 8.235 11.485 8.248 11.478 C 8.255 11.465 8.261 11.455 8.268 11.448 C 8.275 11.441 8.278 11.435 8.278 11.428 C 8.278 11.428 8.275 11.425 8.268 11.418 ZM 8.644 11.658 C 8.65 11.665 8.657 11.671 8.664 11.678 C 8.67 11.691 8.68 11.705 8.694 11.718 C 8.7 11.731 8.707 11.741 8.714 11.748 C 8.727 11.761 8.734 11.771 8.734 11.778 C 8.747 11.785 8.757 11.795 8.764 11.808 C 8.77 11.815 8.774 11.821 8.774 11.828 L 8.794 11.858 C 8.8 11.865 8.807 11.871 8.814 11.878 C 8.814 11.885 8.817 11.891 8.824 11.898 C 8.824 11.905 8.824 11.908 8.824 11.908 C 8.824 11.915 8.82 11.918 8.814 11.918 C 8.814 11.918 8.814 11.918 8.814 11.918 C 8.814 11.918 8.81 11.921 8.804 11.928 C 8.804 11.928 8.8 11.928 8.794 11.928 C 8.787 11.928 8.784 11.928 8.784 11.928 C 8.777 11.928 8.767 11.928 8.754 11.928 C 8.747 11.928 8.74 11.928 8.734 11.928 C 8.734 11.928 8.734 11.928 8.734 11.928 C 8.727 11.935 8.724 11.938 8.724 11.938 C 8.717 11.938 8.714 11.935 8.714 11.928 C 8.714 11.928 8.71 11.928 8.704 11.928 C 8.697 11.921 8.694 11.915 8.694 11.908 C 8.687 11.901 8.684 11.895 8.684 11.888 C 8.677 11.888 8.67 11.885 8.664 11.878 C 8.657 11.878 8.654 11.875 8.654 11.868 C 8.647 11.855 8.637 11.841 8.624 11.828 C 8.61 11.815 8.6 11.801 8.594 11.788 C 8.587 11.781 8.58 11.775 8.574 11.768 C 8.567 11.761 8.56 11.755 8.554 11.748 C 8.554 11.741 8.55 11.735 8.544 11.728 C 8.537 11.715 8.534 11.705 8.534 11.698 C 8.527 11.698 8.52 11.691 8.514 11.678 C 8.507 11.671 8.5 11.661 8.494 11.648 C 8.487 11.641 8.48 11.635 8.474 11.628 C 8.46 11.615 8.454 11.608 8.454 11.608 C 8.447 11.601 8.444 11.598 8.444 11.598 C 8.444 11.591 8.44 11.588 8.434 11.588 C 8.434 11.588 8.434 11.585 8.434 11.578 C 8.434 11.578 8.434 11.575 8.434 11.568 C 8.434 11.568 8.434 11.565 8.434 11.558 C 8.434 11.558 8.434 11.555 8.434 11.548 C 8.434 11.548 8.434 11.545 8.434 11.538 C 8.44 11.531 8.447 11.525 8.454 11.518 C 8.454 11.511 8.457 11.505 8.464 11.498 C 8.464 11.498 8.464 11.498 8.464 11.498 C 8.464 11.491 8.464 11.488 8.464 11.488 C 8.47 11.481 8.474 11.478 8.474 11.478 C 8.48 11.471 8.484 11.465 8.484 11.458 C 8.49 11.458 8.494 11.455 8.494 11.448 C 8.5 11.441 8.504 11.435 8.504 11.428 C 8.517 11.415 8.527 11.398 8.534 11.378 C 8.547 11.365 8.557 11.351 8.564 11.338 C 8.577 11.325 8.587 11.311 8.594 11.298 C 8.6 11.285 8.607 11.271 8.614 11.258 C 8.62 11.251 8.627 11.245 8.634 11.238 C 8.64 11.231 8.647 11.225 8.654 11.218 C 8.654 11.211 8.657 11.205 8.664 11.198 C 8.67 11.191 8.677 11.185 8.684 11.178 C 8.697 11.178 8.704 11.181 8.704 11.188 C 8.71 11.188 8.717 11.188 8.724 11.188 C 8.73 11.195 8.734 11.198 8.734 11.198 C 8.74 11.205 8.744 11.208 8.744 11.208 C 8.757 11.208 8.767 11.211 8.774 11.218 C 8.774 11.218 8.777 11.221 8.784 11.228 C 8.784 11.235 8.78 11.241 8.774 11.248 C 8.774 11.255 8.77 11.261 8.764 11.268 C 8.757 11.268 8.754 11.271 8.754 11.278 C 8.754 11.285 8.75 11.288 8.744 11.288 C 8.737 11.301 8.73 11.311 8.724 11.318 C 8.717 11.331 8.71 11.341 8.704 11.348 C 8.697 11.355 8.694 11.361 8.694 11.368 C 8.687 11.368 8.684 11.371 8.684 11.378 C 8.677 11.378 8.674 11.381 8.674 11.388 C 8.674 11.388 8.674 11.388 8.674 11.388 C 8.667 11.401 8.657 11.415 8.644 11.428 C 8.637 11.435 8.63 11.445 8.624 11.458 C 8.617 11.465 8.614 11.471 8.614 11.478 C 8.614 11.485 8.614 11.488 8.614 11.488 C 8.607 11.495 8.6 11.501 8.594 11.508 C 8.594 11.515 8.59 11.521 8.584 11.528 C 8.577 11.535 8.574 11.541 8.574 11.548 C 8.567 11.555 8.564 11.561 8.564 11.568 C 8.564 11.568 8.567 11.575 8.574 11.588 C 8.587 11.595 8.597 11.605 8.604 11.618 C 8.61 11.625 8.62 11.635 8.634 11.648 C 8.64 11.655 8.644 11.658 8.644 11.658 Z M 8.714 11.488 C 8.714 11.495 8.717 11.501 8.724 11.508 C 8.73 11.515 8.734 11.518 8.734 11.518 C 8.734 11.518 8.734 11.521 8.734 11.528 C 8.74 11.528 8.744 11.528 8.744 11.528 C 8.744 11.535 8.744 11.538 8.744 11.538 C 8.75 11.545 8.754 11.551 8.754 11.558 C 8.76 11.565 8.764 11.571 8.764 11.578 C 8.764 11.578 8.764 11.581 8.764 11.588 C 8.764 11.595 8.764 11.598 8.764 11.598 C 8.764 11.605 8.764 11.608 8.764 11.608 C 8.764 11.615 8.76 11.618 8.754 11.618 C 8.754 11.625 8.75 11.628 8.744 11.628 C 8.744 11.628 8.74 11.628 8.734 11.628 C 8.734 11.635 8.734 11.638 8.734 11.638 C 8.727 11.645 8.724 11.648 8.724 11.648 C 8.717 11.655 8.714 11.658 8.714 11.658 C 8.714 11.665 8.714 11.668 8.714 11.668 C 8.707 11.668 8.7 11.668 8.694 11.668 C 8.694 11.668 8.694 11.668 8.694 11.668 C 8.687 11.668 8.68 11.665 8.674 11.658 C 8.674 11.658 8.67 11.658 8.664 11.658 C 8.664 11.651 8.66 11.645 8.654 11.638 C 8.654 11.631 8.65 11.625 8.644 11.618 L 8.634 11.608 C 8.627 11.595 8.62 11.581 8.614 11.568 C 8.607 11.561 8.6 11.548 8.594 11.528 C 8.607 11.521 8.617 11.515 8.624 11.508 C 8.63 11.501 8.637 11.498 8.644 11.498 C 8.65 11.491 8.657 11.488 8.664 11.488 C 8.67 11.481 8.677 11.475 8.684 11.468 C 8.69 11.468 8.694 11.471 8.694 11.478 C 8.7 11.478 8.704 11.478 8.704 11.478 C 8.704 11.478 8.704 11.478 8.704 11.478 C 8.704 11.478 8.707 11.481 8.714 11.488 ZM 9.072 11.178 L 9.082 11.178 C 9.082 11.191 9.085 11.205 9.092 11.218 C 9.092 11.225 9.095 11.235 9.102 11.248 C 9.109 11.248 9.115 11.248 9.122 11.248 C 9.122 11.248 9.122 11.248 9.122 11.248 C 9.135 11.268 9.142 11.288 9.142 11.308 C 9.142 11.328 9.145 11.348 9.152 11.368 C 9.159 11.381 9.165 11.398 9.172 11.418 C 9.179 11.438 9.185 11.455 9.192 11.468 C 9.192 11.475 9.195 11.481 9.202 11.488 C 9.202 11.488 9.202 11.488 9.202 11.488 C 9.202 11.501 9.205 11.511 9.212 11.518 C 9.212 11.531 9.215 11.545 9.222 11.558 C 9.222 11.565 9.225 11.571 9.232 11.578 C 9.232 11.578 9.232 11.581 9.232 11.588 C 9.239 11.595 9.242 11.601 9.242 11.608 C 9.242 11.615 9.242 11.621 9.242 11.628 C 9.249 11.641 9.255 11.655 9.262 11.668 C 9.269 11.681 9.272 11.695 9.272 11.708 C 9.279 11.715 9.285 11.725 9.292 11.738 C 9.292 11.751 9.295 11.768 9.302 11.788 C 9.309 11.808 9.315 11.825 9.322 11.838 C 9.329 11.851 9.332 11.858 9.332 11.858 C 9.332 11.865 9.332 11.871 9.332 11.878 C 9.332 11.885 9.332 11.891 9.332 11.898 C 9.332 11.905 9.329 11.908 9.322 11.908 C 9.315 11.908 9.312 11.908 9.312 11.908 C 9.305 11.908 9.302 11.908 9.302 11.908 C 9.302 11.908 9.299 11.911 9.292 11.918 C 9.292 11.918 9.292 11.918 9.292 11.918 C 9.285 11.918 9.282 11.918 9.282 11.918 C 9.275 11.918 9.272 11.918 9.272 11.918 C 9.265 11.918 9.262 11.918 9.262 11.918 C 9.255 11.918 9.252 11.918 9.252 11.918 C 9.245 11.925 9.242 11.928 9.242 11.928 C 9.242 11.928 9.239 11.928 9.232 11.928 C 9.232 11.928 9.229 11.928 9.222 11.928 C 9.222 11.928 9.222 11.925 9.222 11.918 C 9.222 11.918 9.219 11.915 9.212 11.908 C 9.205 11.901 9.202 11.891 9.202 11.878 C 9.202 11.871 9.199 11.865 9.192 11.858 C 9.192 11.851 9.189 11.845 9.182 11.838 C 9.182 11.831 9.182 11.825 9.182 11.818 C 9.175 11.818 9.169 11.818 9.162 11.818 C 9.162 11.818 9.162 11.821 9.162 11.828 C 9.155 11.828 9.152 11.828 9.152 11.828 C 9.152 11.828 9.149 11.831 9.142 11.838 C 9.142 11.838 9.139 11.838 9.132 11.838 C 9.132 11.838 9.129 11.838 9.122 11.838 C 9.122 11.845 9.119 11.848 9.112 11.848 C 9.112 11.848 9.109 11.848 9.102 11.848 C 9.095 11.855 9.089 11.861 9.082 11.868 C 9.082 11.868 9.079 11.868 9.072 11.868 C 9.059 11.868 9.049 11.871 9.042 11.878 C 9.029 11.878 9.019 11.878 9.012 11.878 C 8.999 11.871 8.992 11.868 8.992 11.868 C 8.992 11.868 8.989 11.868 8.982 11.868 C 8.982 11.855 8.979 11.848 8.972 11.848 C 8.972 11.841 8.972 11.838 8.972 11.838 C 8.972 11.831 8.975 11.828 8.982 11.828 C 8.989 11.821 8.992 11.818 8.992 11.818 C 8.992 11.811 8.995 11.808 9.002 11.808 C 9.002 11.801 9.005 11.798 9.012 11.798 C 9.012 11.798 9.012 11.795 9.012 11.788 C 9.019 11.788 9.022 11.788 9.022 11.788 C 9.022 11.788 9.022 11.785 9.022 11.778 C 9.029 11.778 9.035 11.778 9.042 11.778 C 9.049 11.771 9.052 11.768 9.052 11.768 C 9.059 11.761 9.062 11.758 9.062 11.758 C 9.062 11.758 9.065 11.758 9.072 11.758 C 9.079 11.758 9.082 11.758 9.082 11.758 C 9.089 11.758 9.095 11.758 9.102 11.758 C 9.102 11.758 9.102 11.758 9.102 11.758 C 9.109 11.758 9.112 11.758 9.112 11.758 C 9.119 11.751 9.125 11.748 9.132 11.748 C 9.139 11.748 9.145 11.745 9.152 11.738 C 9.152 11.731 9.152 11.725 9.152 11.718 C 9.145 11.711 9.142 11.705 9.142 11.698 C 9.142 11.691 9.139 11.685 9.132 11.678 C 9.132 11.671 9.129 11.661 9.122 11.648 C 9.115 11.621 9.109 11.595 9.102 11.568 C 9.089 11.548 9.079 11.521 9.072 11.488 C 9.072 11.488 9.072 11.485 9.072 11.478 C 9.072 11.478 9.072 11.475 9.072 11.468 C 9.065 11.481 9.062 11.488 9.062 11.488 C 9.062 11.488 9.062 11.488 9.062 11.488 C 9.062 11.495 9.062 11.498 9.062 11.498 C 9.062 11.498 9.059 11.501 9.052 11.508 C 9.052 11.508 9.052 11.511 9.052 11.518 C 9.052 11.525 9.049 11.531 9.042 11.538 C 9.042 11.551 9.042 11.565 9.042 11.578 C 9.035 11.585 9.032 11.595 9.032 11.608 C 9.025 11.628 9.019 11.648 9.012 11.668 C 9.005 11.688 8.999 11.708 8.992 11.728 C 8.992 11.741 8.989 11.748 8.982 11.748 C 8.982 11.755 8.982 11.761 8.982 11.768 C 8.982 11.768 8.979 11.771 8.972 11.778 C 8.972 11.785 8.972 11.788 8.972 11.788 C 8.965 11.808 8.959 11.831 8.952 11.858 C 8.945 11.878 8.939 11.898 8.932 11.918 C 8.925 11.918 8.922 11.918 8.922 11.918 C 8.922 11.925 8.919 11.928 8.912 11.928 C 8.905 11.928 8.902 11.925 8.902 11.918 C 8.902 11.918 8.902 11.918 8.902 11.918 C 8.902 11.918 8.899 11.918 8.892 11.918 C 8.892 11.918 8.892 11.918 8.892 11.918 C 8.885 11.918 8.882 11.918 8.882 11.918 C 8.875 11.918 8.872 11.918 8.872 11.918 C 8.865 11.918 8.859 11.918 8.852 11.918 C 8.852 11.918 8.849 11.918 8.842 11.918 C 8.835 11.918 8.832 11.918 8.832 11.918 C 8.825 11.918 8.822 11.918 8.822 11.918 C 8.822 11.918 8.819 11.915 8.812 11.908 C 8.812 11.908 8.812 11.908 8.812 11.908 C 8.812 11.901 8.812 11.898 8.812 11.898 C 8.812 11.891 8.812 11.885 8.812 11.878 C 8.825 11.845 8.835 11.811 8.842 11.778 C 8.855 11.745 8.869 11.711 8.882 11.678 C 8.889 11.658 8.892 11.641 8.892 11.628 C 8.899 11.615 8.905 11.598 8.912 11.578 C 8.912 11.571 8.915 11.565 8.922 11.558 C 8.922 11.545 8.925 11.535 8.932 11.528 C 8.932 11.515 8.935 11.498 8.942 11.478 C 8.949 11.465 8.955 11.448 8.962 11.428 C 8.962 11.428 8.962 11.425 8.962 11.418 C 8.962 11.418 8.962 11.415 8.962 11.408 L 8.962 11.398 C 8.969 11.391 8.972 11.385 8.972 11.378 C 8.979 11.378 8.982 11.375 8.982 11.368 C 8.982 11.361 8.985 11.351 8.992 11.338 C 8.992 11.331 8.992 11.325 8.992 11.318 C 8.992 11.305 8.992 11.291 8.992 11.278 C 8.992 11.265 8.995 11.255 9.002 11.248 C 9.002 11.248 9.002 11.245 9.002 11.238 C 9.002 11.238 9.002 11.238 9.002 11.238 C 9.009 11.238 9.012 11.235 9.012 11.228 C 9.012 11.228 9.012 11.228 9.012 11.228 C 9.019 11.221 9.019 11.215 9.012 11.208 C 9.012 11.208 9.012 11.205 9.012 11.198 C 9.019 11.198 9.022 11.195 9.022 11.188 C 9.022 11.188 9.022 11.185 9.022 11.178 C 9.022 11.178 9.025 11.178 9.032 11.178 C 9.032 11.171 9.032 11.168 9.032 11.168 C 9.039 11.168 9.045 11.168 9.052 11.168 C 9.052 11.168 9.055 11.168 9.062 11.168 C 9.069 11.175 9.072 11.178 9.072 11.178 ZM 9.386 11.928 C 9.386 11.928 9.386 11.925 9.386 11.918 C 9.386 11.918 9.386 11.915 9.386 11.908 C 9.386 11.908 9.386 11.905 9.386 11.898 C 9.393 11.885 9.396 11.871 9.396 11.858 C 9.396 11.845 9.396 11.828 9.396 11.808 C 9.396 11.801 9.396 11.795 9.396 11.788 C 9.396 11.775 9.396 11.765 9.396 11.758 C 9.396 11.705 9.396 11.651 9.396 11.598 C 9.39 11.545 9.386 11.488 9.386 11.428 C 9.386 11.395 9.386 11.358 9.386 11.318 C 9.386 11.278 9.39 11.241 9.396 11.208 C 9.396 11.201 9.403 11.198 9.416 11.198 C 9.423 11.198 9.43 11.195 9.436 11.188 C 9.436 11.188 9.44 11.188 9.446 11.188 C 9.446 11.188 9.45 11.188 9.456 11.188 C 9.463 11.188 9.47 11.188 9.476 11.188 C 9.483 11.181 9.49 11.175 9.496 11.168 C 9.496 11.175 9.5 11.178 9.506 11.178 C 9.506 11.178 9.506 11.178 9.506 11.178 C 9.513 11.178 9.52 11.178 9.526 11.178 C 9.533 11.185 9.54 11.191 9.546 11.198 C 9.553 11.205 9.56 11.208 9.566 11.208 C 9.573 11.215 9.576 11.218 9.576 11.218 C 9.596 11.231 9.613 11.248 9.626 11.268 C 9.633 11.281 9.643 11.295 9.656 11.308 C 9.67 11.321 9.683 11.338 9.696 11.358 C 9.71 11.371 9.723 11.385 9.736 11.398 C 9.743 11.405 9.75 11.408 9.756 11.408 C 9.756 11.415 9.76 11.418 9.766 11.418 C 9.766 11.425 9.766 11.428 9.766 11.428 C 9.773 11.435 9.776 11.438 9.776 11.438 C 9.783 11.445 9.786 11.448 9.786 11.448 C 9.793 11.455 9.8 11.461 9.806 11.468 C 9.806 11.468 9.81 11.471 9.816 11.478 C 9.823 11.485 9.826 11.491 9.826 11.498 C 9.826 11.498 9.826 11.501 9.826 11.508 C 9.826 11.508 9.826 11.508 9.826 11.508 C 9.826 11.515 9.826 11.518 9.826 11.518 C 9.826 11.525 9.826 11.528 9.826 11.528 C 9.82 11.535 9.813 11.538 9.806 11.538 C 9.806 11.538 9.806 11.538 9.806 11.538 C 9.806 11.545 9.803 11.548 9.796 11.548 C 9.796 11.548 9.796 11.551 9.796 11.558 C 9.796 11.558 9.796 11.558 9.796 11.558 C 9.796 11.565 9.793 11.568 9.786 11.568 C 9.786 11.575 9.783 11.581 9.776 11.588 C 9.77 11.595 9.763 11.601 9.756 11.608 C 9.75 11.621 9.743 11.635 9.736 11.648 C 9.73 11.655 9.72 11.665 9.706 11.678 C 9.706 11.685 9.703 11.691 9.696 11.698 C 9.696 11.698 9.693 11.701 9.686 11.708 C 9.686 11.715 9.683 11.718 9.676 11.718 C 9.676 11.725 9.673 11.731 9.666 11.738 C 9.66 11.745 9.653 11.751 9.646 11.758 C 9.64 11.771 9.633 11.781 9.626 11.788 C 9.62 11.801 9.613 11.811 9.606 11.818 C 9.593 11.831 9.583 11.845 9.576 11.858 C 9.57 11.865 9.563 11.875 9.556 11.888 C 9.55 11.895 9.54 11.905 9.526 11.918 C 9.526 11.918 9.523 11.921 9.516 11.928 C 9.516 11.928 9.513 11.928 9.506 11.928 C 9.506 11.928 9.506 11.928 9.506 11.928 C 9.5 11.928 9.496 11.928 9.496 11.928 C 9.496 11.928 9.493 11.928 9.486 11.928 C 9.486 11.928 9.483 11.928 9.476 11.928 L 9.456 11.928 C 9.45 11.935 9.443 11.938 9.436 11.938 C 9.43 11.938 9.426 11.938 9.426 11.938 C 9.42 11.938 9.416 11.938 9.416 11.938 C 9.416 11.938 9.416 11.938 9.416 11.938 C 9.41 11.938 9.406 11.938 9.406 11.938 C 9.4 11.931 9.393 11.928 9.386 11.928 Z M 9.686 11.508 C 9.686 11.501 9.683 11.498 9.676 11.498 C 9.67 11.491 9.663 11.485 9.656 11.478 C 9.656 11.478 9.653 11.475 9.646 11.468 C 9.64 11.468 9.633 11.465 9.626 11.458 C 9.626 11.451 9.623 11.448 9.616 11.448 C 9.616 11.441 9.613 11.438 9.606 11.438 C 9.6 11.425 9.59 11.411 9.576 11.398 C 9.563 11.385 9.553 11.368 9.546 11.348 C 9.54 11.348 9.533 11.345 9.526 11.338 C 9.52 11.331 9.513 11.328 9.506 11.328 C 9.506 11.328 9.506 11.331 9.506 11.338 C 9.506 11.345 9.506 11.348 9.506 11.348 C 9.506 11.361 9.506 11.378 9.506 11.398 C 9.506 11.411 9.506 11.425 9.506 11.438 C 9.506 11.471 9.506 11.505 9.506 11.538 C 9.506 11.571 9.506 11.608 9.506 11.648 C 9.506 11.661 9.506 11.671 9.506 11.678 C 9.506 11.691 9.506 11.705 9.506 11.718 C 9.506 11.725 9.506 11.728 9.506 11.728 C 9.506 11.735 9.506 11.741 9.506 11.748 C 9.513 11.741 9.52 11.735 9.526 11.728 C 9.526 11.728 9.53 11.725 9.536 11.718 C 9.543 11.705 9.553 11.691 9.566 11.678 C 9.58 11.665 9.59 11.648 9.596 11.628 C 9.603 11.621 9.613 11.611 9.626 11.598 C 9.633 11.591 9.64 11.581 9.646 11.568 C 9.646 11.568 9.65 11.565 9.656 11.558 C 9.656 11.551 9.66 11.545 9.666 11.538 C 9.673 11.531 9.676 11.525 9.676 11.518 C 9.683 11.511 9.686 11.508 9.686 11.508 ZM 10.074 11.198 C 10.074 11.198 10.074 11.201 10.074 11.208 C 10.074 11.208 10.074 11.208 10.074 11.208 C 10.08 11.215 10.084 11.218 10.084 11.218 C 10.09 11.218 10.094 11.221 10.094 11.228 C 10.1 11.228 10.104 11.231 10.104 11.238 C 10.104 11.238 10.104 11.238 10.104 11.238 C 10.11 11.245 10.114 11.248 10.114 11.248 C 10.114 11.248 10.117 11.251 10.124 11.258 C 10.124 11.258 10.127 11.261 10.134 11.268 C 10.134 11.268 10.134 11.271 10.134 11.278 C 10.134 11.278 10.127 11.281 10.114 11.288 C 10.107 11.301 10.1 11.311 10.094 11.318 C 10.08 11.325 10.07 11.335 10.064 11.348 C 10.057 11.355 10.05 11.358 10.044 11.358 C 10.044 11.365 10.04 11.368 10.034 11.368 C 10.034 11.368 10.034 11.371 10.034 11.378 C 10.027 11.378 10.024 11.381 10.024 11.388 C 10.017 11.388 10.014 11.391 10.014 11.398 C 10.007 11.405 9.997 11.411 9.984 11.418 C 9.97 11.431 9.96 11.441 9.954 11.448 C 9.96 11.448 9.964 11.451 9.964 11.458 C 9.964 11.458 9.964 11.458 9.964 11.458 C 9.97 11.465 9.977 11.468 9.984 11.468 C 9.99 11.475 9.997 11.481 10.004 11.488 C 10.01 11.495 10.017 11.498 10.024 11.498 C 10.03 11.505 10.034 11.508 10.034 11.508 C 10.04 11.515 10.044 11.521 10.044 11.528 C 10.05 11.528 10.057 11.531 10.064 11.538 C 10.07 11.545 10.077 11.548 10.084 11.548 C 10.097 11.561 10.11 11.575 10.124 11.588 C 10.13 11.595 10.14 11.605 10.154 11.618 L 10.164 11.628 C 10.164 11.628 10.167 11.635 10.174 11.648 C 10.174 11.655 10.174 11.658 10.174 11.658 C 10.174 11.665 10.174 11.668 10.174 11.668 C 10.18 11.675 10.184 11.678 10.184 11.678 C 10.184 11.691 10.184 11.698 10.184 11.698 C 10.17 11.711 10.16 11.721 10.154 11.728 C 10.14 11.735 10.13 11.741 10.124 11.748 C 10.117 11.755 10.114 11.761 10.114 11.768 C 10.107 11.775 10.1 11.781 10.094 11.788 C 10.087 11.795 10.084 11.798 10.084 11.798 C 10.077 11.805 10.07 11.808 10.064 11.808 C 10.057 11.815 10.05 11.821 10.044 11.828 C 10.037 11.835 10.03 11.841 10.024 11.848 C 10.017 11.855 10.01 11.861 10.004 11.868 C 10.004 11.868 10 11.871 9.994 11.878 C 9.987 11.885 9.984 11.888 9.984 11.888 C 9.977 11.895 9.97 11.901 9.964 11.908 C 9.964 11.908 9.96 11.911 9.954 11.918 C 9.954 11.918 9.95 11.921 9.944 11.928 C 9.944 11.928 9.94 11.928 9.934 11.928 C 9.934 11.935 9.93 11.938 9.924 11.938 C 9.917 11.938 9.91 11.935 9.904 11.928 C 9.904 11.928 9.9 11.925 9.894 11.918 C 9.887 11.918 9.884 11.915 9.884 11.908 C 9.877 11.908 9.874 11.908 9.874 11.908 C 9.867 11.901 9.864 11.898 9.864 11.898 C 9.864 11.898 9.864 11.895 9.864 11.888 C 9.857 11.888 9.85 11.885 9.844 11.878 C 9.844 11.871 9.844 11.868 9.844 11.868 C 9.85 11.868 9.854 11.865 9.854 11.858 C 9.854 11.851 9.857 11.845 9.864 11.838 C 9.87 11.838 9.877 11.835 9.884 11.828 C 9.89 11.821 9.894 11.815 9.894 11.808 C 9.9 11.801 9.907 11.795 9.914 11.788 C 9.914 11.788 9.917 11.788 9.924 11.788 C 9.924 11.781 9.927 11.778 9.934 11.778 C 9.94 11.771 9.947 11.765 9.954 11.758 C 9.96 11.751 9.967 11.745 9.974 11.738 C 9.987 11.725 10 11.715 10.014 11.708 C 10.02 11.695 10.03 11.681 10.044 11.668 C 10.044 11.668 10.04 11.668 10.034 11.668 C 10.034 11.668 10.034 11.668 10.034 11.668 C 10.027 11.655 10.017 11.645 10.004 11.638 C 9.997 11.625 9.987 11.615 9.974 11.608 C 9.967 11.608 9.964 11.605 9.964 11.598 C 9.95 11.591 9.94 11.581 9.934 11.568 C 9.92 11.561 9.907 11.555 9.894 11.548 C 9.894 11.541 9.89 11.538 9.884 11.538 C 9.884 11.538 9.88 11.535 9.874 11.528 C 9.874 11.528 9.87 11.525 9.864 11.518 C 9.864 11.518 9.864 11.518 9.864 11.518 C 9.857 11.511 9.854 11.508 9.854 11.508 C 9.847 11.501 9.844 11.498 9.844 11.498 C 9.844 11.498 9.84 11.495 9.834 11.488 C 9.834 11.488 9.83 11.488 9.824 11.488 C 9.824 11.481 9.824 11.478 9.824 11.478 C 9.824 11.471 9.824 11.468 9.824 11.468 C 9.824 11.461 9.824 11.458 9.824 11.458 C 9.824 11.458 9.82 11.455 9.814 11.448 C 9.814 11.448 9.814 11.445 9.814 11.438 C 9.814 11.438 9.814 11.438 9.814 11.438 C 9.82 11.438 9.824 11.435 9.824 11.428 L 9.824 11.418 C 9.83 11.411 9.834 11.405 9.834 11.398 C 9.84 11.398 9.847 11.395 9.854 11.388 C 9.86 11.381 9.867 11.375 9.874 11.368 C 9.88 11.361 9.884 11.355 9.884 11.348 C 9.89 11.348 9.897 11.345 9.904 11.338 C 9.904 11.338 9.907 11.335 9.914 11.328 C 9.914 11.321 9.917 11.318 9.924 11.318 C 9.924 11.318 9.927 11.315 9.934 11.308 C 9.934 11.308 9.934 11.308 9.934 11.308 C 9.954 11.288 9.97 11.271 9.984 11.258 C 9.997 11.251 10.01 11.241 10.024 11.228 C 10.024 11.221 10.027 11.218 10.034 11.218 C 10.034 11.211 10.037 11.208 10.044 11.208 C 10.044 11.201 10.047 11.198 10.054 11.198 C 10.054 11.198 10.054 11.198 10.054 11.198 C 10.06 11.198 10.067 11.198 10.074 11.198 Z" transform="matrix(1, 0, 0, 1, 0, 0)" style="fill: rgb(225, 225, 225); white-space: pre;"/>
  </g>
</svg>