<?xml version="1.0" encoding="utf-8"?>
<svg viewBox="488.651 461.496 504.264 504.264" xmlns="http://www.w3.org/2000/svg">
  <defs>
    <radialGradient gradientUnits="userSpaceOnUse" cx="1579.439" cy="705.948" r="252.132" id="gradient-1" gradientTransform="matrix(1, 0, 0, 1, 0, 0)">
      <stop offset="0" style="stop-color: rgb(249, 255, 248);"/>
      <stop offset="1" style="stop-color: rgb(225, 225, 225);"/>
    </radialGradient>
    <style>.cls-1{fill:#fff;}.cls-2{fill:url(#radial-gradient);}.cls-3{fill:url(#linear-gradient);}.cls-4{fill:#e6e6e6;}.cls-5{opacity:0.14;}.cls-5,.cls-6{isolation:isolate;}.cls-6{fill:#1a1a1a;opacity:0.17;}.cls-7{fill:url(#linear-gradient-2);}</style>
  </defs>
  <g transform="matrix(1, 0, 0, 1, -838.655945, 7.68)">
    <path class="cls-4" d="M 1374.55 741.23 L 1781.65 665.74 C 1781.65 665.74 1743.96 469.74 1543.87 496.29 C 1343.78 522.84 1374.55 741.23 1374.55 741.23 Z"/>
    <path class="cls-5" d="M 1391.82 607.24 C 1443.62 617.43 1437.47 648.73 1443.62 617.43 C 1449.77 586.13 1491.98 567.93 1511.62 571.79 C 1531.26 575.65 1570.67 541.51 1562.74 581.84 C 1554.81 622.17 1589.93 622.34 1603.74 642.84 C 1617.55 663.34 1654.29 629.34 1649.86 651.91 C 1645.43 674.48 1609.22 669.4 1607 680.68 C 1604.78 691.96 1578.72 680.93 1574.13 674.22 C 1569.54 667.51 1591.84 661.9 1577.13 659.01 C 1562.42 656.12 1540.76 631.48 1536.9 651.1 C 1533.04 670.72 1526 673 1531.08 680.59 C 1536.16 688.18 1553.83 678.94 1552.67 684.83 C 1551.51 690.72 1553.67 710.91 1547.77 709.75 C 1541.87 708.59 1525.14 699.39 1518.33 703.97 C 1511.52 708.55 1481.9 681.92 1479.09 696.25 C 1476.28 710.58 1448.35 713.65 1447.62 717.38 C 1446.89 721.11 1420.93 712.13 1420.93 712.13 C 1420.93 712.13 1385.48 679.89 1380.7 704.22 C 1375.92 728.55 1374.32 694.71 1374.32 694.71 C 1374.32 694.71 1375.52 668.35 1378.8 651.71 C 1382.08 635.07 1389.8 616.16 1389.8 616.16 Z"/>
    <path class="cls-6" d="M 1613.398 591.501 C 1627.018 582.361 1615.558 556.151 1654.608 563.831 C 1693.658 571.511 1644.608 570.531 1671.048 552.831 C 1697.488 535.131 1707.208 552.401 1712.948 561.071 C 1718.688 569.741 1738.178 583.071 1744.088 589.311 C 1749.998 595.551 1762.658 601.111 1760.248 613.381 C 1757.838 625.651 1736.898 615.511 1733.808 631.211 C 1730.718 646.911 1717.128 627.931 1701.428 624.851 C 1685.728 621.771 1648.038 611.291 1644.518 613.661 C 1640.998 616.031 1627.228 605.661 1621.948 609.221 C 1616.668 612.781 1612.728 595.481 1612.728 595.481 Z"/>
    <path class="cls-4" d="M 1376.141 911.198 L 1783.241 835.708 C 1783.241 835.708 1745.551 639.708 1545.461 666.258 C 1345.371 692.808 1376.141 911.198 1376.141 911.198 Z" transform="matrix(-1, 0, 0, -1, 3157.679565, 1574.983215)"/>
    <path class="cls-5" d="M 1574.225 719.218 C 1607.359 725.736 1603.425 745.757 1607.359 725.736 C 1611.293 705.715 1638.293 694.073 1650.856 696.542 C 1663.419 699.011 1688.627 677.173 1683.555 702.971 C 1678.483 728.768 1700.947 728.877 1709.781 741.99 C 1718.614 755.103 1742.115 733.354 1739.282 747.791 C 1736.448 762.228 1713.286 758.979 1711.866 766.194 C 1710.446 773.409 1693.777 766.354 1690.841 762.062 C 1687.905 757.77 1702.169 754.181 1692.76 752.333 C 1683.35 750.484 1669.495 734.723 1667.026 747.273 C 1664.557 759.823 1660.054 761.282 1663.304 766.137 C 1666.553 770.992 1677.856 765.081 1677.114 768.849 C 1676.372 772.616 1677.753 785.531 1673.979 784.789 C 1670.205 784.047 1659.504 778.162 1655.148 781.092 C 1650.792 784.021 1631.845 766.987 1630.048 776.154 C 1628.25 785.32 1610.385 787.284 1609.918 789.669 C 1609.451 792.055 1592.846 786.311 1592.846 786.311 C 1592.846 786.311 1570.17 765.689 1567.112 781.252 C 1564.055 796.814 1563.031 775.169 1563.031 775.169 C 1563.031 775.169 1563.799 758.307 1565.897 747.663 C 1567.995 737.02 1572.933 724.924 1572.933 724.924 Z" style="" transform="matrix(-1, 0, 0, -1, 3302.54834, 1480.498718)"/>
    <path class="cls-6" d="M 1426.137 819.291 C 1439.757 810.151 1428.297 783.941 1467.347 791.621 C 1506.397 799.301 1457.347 798.321 1483.787 780.621 C 1510.227 762.921 1519.947 780.191 1525.687 788.861 C 1531.427 797.531 1550.917 810.861 1556.827 817.101 C 1562.737 823.341 1575.397 828.901 1572.987 841.171 C 1570.577 853.441 1549.637 843.301 1546.547 859.001 C 1543.457 874.701 1529.867 855.721 1514.167 852.641 C 1498.467 849.561 1460.777 839.081 1457.257 841.451 C 1453.737 843.821 1439.967 833.451 1434.687 837.011 C 1429.407 840.571 1425.467 823.271 1425.467 823.271 Z" transform="matrix(-1, 0, 0, -1, 2998.755371, 1638.087158)"/>
    <circle style="paint-order: fill; fill: url(#gradient-1); fill-rule: evenodd; fill-opacity: 0.08;" cx="1579.439" cy="705.948" r="252.132"/>
  </g>
</svg>