<svg id="Layer_1" data-name="Layer 1" xmlns="http://www.w3.org/2000/svg" viewBox="0 0 256 100"><defs><style>.cls-1{fill:#e6e6e6;}.cls-2{opacity:0.14;}.cls-2,.cls-3{isolation:isolate;}.cls-3{fill:#1a1a1a;opacity:0.17;}.cls-4{font-size:60px;}.cls-4,.cls-5{fill:#fff;font-family:BerlinSansFBDemi-Bold, Berlin Sans FB Demi;font-weight:700;}.cls-5{font-size:12px;}</style></defs><title>Newlogo</title><path class="cls-1" d="M238,19.28c9.5,17.94-7.1,28.88-10.68,31a7.21,7.21,0,0,0,.64-.92l.19-.16a11.57,11.57,0,0,0,3-4.14,9,9,0,0,0,.32-1.21A27.33,27.33,0,0,0,232.58,38,28,28,0,0,0,230,23.89C225.93,15.36,218.86,10,210.41,7.28a24,24,0,0,1,17.25,1.31C231.43,10.48,235.08,13.77,238,19.28Z"/><path class="cls-2" d="M232.62,37.23A28.06,28.06,0,0,0,230,23.89c-.19-.41-.41-.8-.62-1.2,2.69-2.37,2.28,3,3.83,4.43s2.72,6.59.26,9.18C233,36.74,232.77,37,232.62,37.23Z"/><path class="cls-2" d="M237.09,41.14a25.27,25.27,0,0,1-2.53,3.31,41.77,41.77,0,0,1-3.64,3.2s-3.2,2-1.29,0a1.87,1.87,0,0,0,.33-.5A8,8,0,0,0,231.15,45a9,9,0,0,0,.32-1.21A27.33,27.33,0,0,0,232.58,38c0-.12,0-.25,0-.37a9.6,9.6,0,0,1,5.17,2.73Z"/><path class="cls-3" d="M227,13.69c0,1.32-.39,1.55-.78,1.46.21.18.48.42.84.76,2.24,2.12,1.44,3.09.74,4.09A30.93,30.93,0,0,0,215.66,9.41c1-1,2.27-.18,3.22-.05s3.44,1.06,4.61,1S226.87,10.12,227,13.69Z"/><text class="cls-4" transform="translate(40.26 61.28)"><tspan xml:space="preserve">L  N  R</tspan></text><text class="cls-5" transform="translate(18.5 78.96)"><tspan xml:space="preserve">         Last              Night               Reads</tspan></text></svg>